<?xml version="1.0" encoding="utf-8"?>
<!-- Generator: Adobe Illustrator 24.3.0, SVG Export Plug-In . SVG Version: 6.00 Build 0)  -->
<svg version="1.1" id="Layer_1" xmlns="http://www.w3.org/2000/svg" xmlns:xlink="http://www.w3.org/1999/xlink" x="0px" y="0px"
	 viewBox="0 0 100 21.2" style="enable-background:new 0 0 100 21.2;" xml:space="preserve">
<style type="text/css">
	.st0{fill:#33D9B2;}
	.st1{fill:#FFFFFF;}
</style>
<path class="st0" d="M35.8,17.3c-3.3,2.5-8.2,3.8-12.4,3.8c-5.9,0-11.1-2.2-15.1-5.8c-0.3-0.3,0-0.7,0.3-0.5c4.3,2.5,9.6,4,15.1,4
	c3.7,0,7.8-0.8,11.5-2.4C35.8,16.3,36.3,16.9,35.8,17.3"/>
<path class="st0" d="M37.1,15.7c-0.4-0.5-2.8-0.3-3.9-0.1c-0.3,0-0.4-0.3-0.1-0.5c1.9-1.4,5.1-1,5.4-0.5c0.4,0.5-0.1,3.6-1.9,5.1
	c-0.3,0.2-0.5,0.1-0.4-0.2C36.7,18.6,37.6,16.3,37.1,15.7"/>
<path class="st1" d="M33.3,5.6V4.3c0-0.2,0.1-0.3,0.3-0.3h5.9c0.2,0,0.3,0.1,0.3,0.3v1.1c0,0.2-0.2,0.4-0.4,0.8l-3,4.4
	c1.1,0,2.3,0.1,3.3,0.7c0.2,0.1,0.3,0.3,0.3,0.5v1.4c0,0.2-0.2,0.4-0.4,0.3c-1.8-1-4.2-1.1-6.2,0c-0.2,0.1-0.4-0.1-0.4-0.3v-1.3
	c0-0.2,0-0.6,0.2-0.9l3.5-5.1h-3.1C33.5,5.9,33.3,5.8,33.3,5.6 M11.9,13.8h-1.8c-0.2,0-0.3-0.1-0.3-0.3V4.3C9.8,4.1,10,4,10.1,4h1.7
	c0.2,0,0.3,0.1,0.3,0.3v1.2h0c0.4-1.2,1.2-1.7,2.3-1.7c1.1,0,1.8,0.5,2.3,1.7c0.4-1.2,1.4-1.7,2.5-1.7c0.8,0,1.6,0.3,2.1,1
	c0.6,0.8,0.5,1.9,0.5,2.9l0,5.8c0,0.2-0.1,0.3-0.3,0.3h-1.8c-0.2,0-0.3-0.2-0.3-0.3V8.6c0-0.4,0-1.4-0.1-1.7c-0.1-0.6-0.5-0.8-1-0.8
	c-0.4,0-0.9,0.3-1.1,0.8c-0.2,0.5-0.2,1.2-0.2,1.8v4.9c0,0.2-0.2,0.3-0.3,0.3h-1.8c-0.2,0-0.3-0.2-0.3-0.3V8.6c0-1,0.2-2.5-1.1-2.5
	c-1.3,0-1.2,1.5-1.2,2.5v4.9C12.3,13.7,12.1,13.8,11.9,13.8 M44.9,5.7c-1.3,0-1.4,1.8-1.4,2.9s0,3.5,1.4,3.5c1.4,0,1.4-1.9,1.4-3.1
	c0-0.8,0-1.7-0.3-2.4C45.9,5.9,45.5,5.7,44.9,5.7 M44.9,3.8C47.5,3.8,49,6.1,49,9c0,2.8-1.6,5-4.1,5c-2.6,0-4-2.3-4-5.1
	C40.9,6,42.3,3.8,44.9,3.8 M52.4,13.8h-1.8c-0.2,0-0.3-0.2-0.3-0.3V4.3c0-0.2,0.2-0.3,0.3-0.3h1.7c0.2,0,0.3,0.1,0.3,0.3v1.4h0
	c0.5-1.3,1.2-1.9,2.4-1.9c0.8,0,1.6,0.3,2.1,1.1c0.5,0.7,0.5,2,0.5,2.9v5.8c0,0.2-0.2,0.3-0.3,0.3h-1.8c-0.2,0-0.3-0.1-0.3-0.3v-5
	c0-1,0.1-2.5-1.1-2.5c-0.4,0-0.8,0.3-1,0.7c-0.3,0.6-0.3,1.1-0.3,1.7v5C52.8,13.7,52.6,13.8,52.4,13.8 M31.8,12.1
	c-0.3-0.5-0.7-0.8-0.7-1.7V7.7c0-1.2,0.1-2.3-0.8-3.1c-0.7-0.7-1.8-0.9-2.7-0.9c-1.7,0-3.6,0.6-4,2.7c0,0.2,0.1,0.3,0.3,0.4L25.7,7
	C25.8,7,26,6.8,26,6.7c0.2-0.7,0.8-1.1,1.4-1.1c0.4,0,0.8,0.1,1,0.5c0.3,0.4,0.2,0.9,0.2,1.3v0.2c-1,0.1-2.4,0.2-3.4,0.6
	c-1.1,0.5-1.9,1.5-1.9,2.9c0,1.9,1.2,2.8,2.7,2.8c1.3,0,2-0.3,2.9-1.3c0.3,0.5,0.4,0.7,1,1.2c0.1,0.1,0.3,0.1,0.4,0
	c0.4-0.3,1-0.9,1.4-1.2C32,12.5,31.9,12.3,31.8,12.1L31.8,12.1z M28.3,11.3c-0.3,0.5-0.7,0.8-1.2,0.8c-0.7,0-1.1-0.5-1.1-1.3
	C26,9.3,27.4,9,28.6,9v0.4C28.6,10.1,28.7,10.7,28.3,11.3L28.3,11.3z M8.4,12.1c-0.3-0.5-0.7-0.8-0.7-1.7V7.7c0-1.2,0.1-2.3-0.8-3.1
	C6.3,3.9,5.2,3.7,4.3,3.7c-1.7,0-3.6,0.6-4,2.7c0,0.2,0.1,0.3,0.3,0.4L2.3,7c0.2,0,0.3-0.2,0.3-0.3C2.7,5.9,3.4,5.6,4,5.6
	c0.4,0,0.8,0.1,1,0.5c0.3,0.4,0.2,0.9,0.2,1.3v0.2c-1,0.1-2.4,0.2-3.4,0.6C0.8,8.7,0,9.7,0,11.1c0,1.9,1.2,2.8,2.7,2.8
	c1.3,0,2-0.3,2.9-1.3c0.3,0.5,0.4,0.7,1,1.2c0.1,0.1,0.3,0.1,0.4,0c0.4-0.3,1-0.9,1.4-1.2C8.6,12.5,8.5,12.3,8.4,12.1L8.4,12.1z
	 M4.9,11.3c-0.3,0.5-0.7,0.8-1.2,0.8c-0.7,0-1.1-0.5-1.1-1.3C2.6,9.3,4,9,5.2,9v0.4C5.2,10.1,5.3,10.7,4.9,11.3L4.9,11.3z
	 M82.1,11.9c0,0,0.1-0.1,0.1-0.1s0.1,0,0.2,0c0.9,0.4,1.8,0.7,2.5,0.7c1,0,1.6-0.6,1.6-1.4c0-0.7-0.3-1.1-1.3-1.5
	c-1.4-0.6-1.8-0.8-2.3-1.2C82.3,7.8,82,7.2,82,6.4c0-1.6,1.3-2.8,3.1-2.8c1.1,0,2.6,0.5,2.6,0.8c0,0,0,0,0,0.1l-0.4,0.7
	c0,0.1-0.1,0.1-0.2,0.1c0,0-0.1,0-0.2,0c-0.8-0.4-1.4-0.5-1.9-0.5c-1,0-1.5,0.5-1.5,1.3c0,0.4,0.1,0.7,0.4,1
	c0.3,0.3,0.3,0.3,2.1,1.1c1.5,0.7,2,1.4,2,2.6c0,1.7-1.3,2.9-3.2,2.9c-1,0-2.2-0.3-3-0.8c-0.1-0.1-0.1-0.1-0.1-0.2c0,0,0,0,0-0.1
	L82.1,11.9L82.1,11.9z M89.8,4.3c0-0.2,0-0.2,0.2-0.2h1.1c0.2,0,0.2,0,0.2,0.2v9.1c0,0.2-0.2,0.3-0.3,0.3h-0.9
	c-0.2,0-0.3-0.2-0.3-0.4L89.8,4.3L89.8,4.3z M99.5,5.9C99.5,6,99.4,6,99.4,6c0,0-0.1,0-0.2-0.1c-1-0.7-1.4-0.9-2.1-0.9
	c-1.6,0-2.4,1.3-2.4,3.8c0,2.5,0.8,3.8,2.2,3.8c0.8,0,1.2-0.2,2.4-1c0.1,0,0.1-0.1,0.1-0.1c0.1,0,0.1,0,0.1,0.1l0.3,0.8
	c0,0.1,0.1,0.2,0.1,0.2c0,0.1-0.1,0.2-0.3,0.4c-0.8,0.6-1.8,1-2.8,1c-2.4,0-3.8-1.8-3.8-4.9c0-3.3,1.6-5.4,4.1-5.4
	c0.9,0,1.7,0.3,2.5,0.8c0.3,0.2,0.4,0.4,0.4,0.5l0,0.1L99.5,5.9L99.5,5.9z M71.6,6.9c0-1.2,0-3.1-2.6-3.1c-1,0-1.9,0.7-2.3,1.6
	c-0.3-1.1-1-1.6-2.1-1.6c-0.9,0-1.9,0.5-2.4,1.4V4.3C62.1,4.2,62,4,61.8,4h-0.9c-0.2,0-0.3,0.1-0.3,0.3v9.2c0,0.2,0.1,0.3,0.3,0.3
	h0.9c0.2,0,0.3-0.1,0.3-0.3V7v0.1c0-1.5,1.1-2,1.8-2c1.1,0,1.3,0.9,1.3,1.6v6.8c0,0.1,0.2,0.3,0.4,0.3h0.9c0.2,0,0.3-0.1,0.3-0.2V7
	c0-1.5,1.1-1.9,1.8-1.9C69.8,5.1,70,6,70,6.8v6.8c0,0.1,0.1,0.2,0.3,0.3v0h0.9c0.2,0,0.3-0.1,0.3-0.2L71.6,6.9L71.6,6.9z M73.6,12.4
	c0.2,0.5,0.9,1.6,2.4,1.6c1.4,0,2.2-0.5,2.6-1.4v0.8c0,0.2,0.1,0.3,0.3,0.3h0.9c0.2,0,0.3-0.1,0.3-0.3V4.2c0-0.2-0.1-0.3-0.3-0.3H79
	c-0.2,0-0.3,0.1-0.3,0.3v6.5v-0.1c0,1.5-1.7,2-2.4,2c-1.1,0-1.3-0.9-1.3-1.6V4.1c0-0.1-0.2-0.3-0.3-0.3h-0.9c-0.2,0-0.3,0.1-0.3,0.2
	v6.5C73.4,10.7,73.4,11.8,73.6,12.4 M91.1,0H90c-0.2,0-0.2,0-0.2,0.2v1.1c0,0.2,0,0.2,0.2,0.2h1.1c0.2,0,0.2,0,0.2-0.2V0.2
	C91.3,0,91.2,0,91.1,0"/>
</svg>
