<?xml version="1.0" encoding="utf-8"?>
<!-- Generator: Adobe Illustrator 24.3.0, SVG Export Plug-In . SVG Version: 6.00 Build 0)  -->
<svg version="1.1"
	 id="svg1936" inkscape:version="0.91 r13725" sodipodi:docname="Amazon II.svg" xmlns:cc="http://creativecommons.org/ns#" xmlns:dc="http://purl.org/dc/elements/1.1/" xmlns:inkscape="http://www.inkscape.org/namespaces/inkscape" xmlns:rdf="http://www.w3.org/1999/02/22-rdf-syntax-ns#" xmlns:sodipodi="http://sodipodi.sourceforge.net/DTD/sodipodi-0.dtd" xmlns:svg="http://www.w3.org/2000/svg"
	 xmlns="http://www.w3.org/2000/svg" xmlns:xlink="http://www.w3.org/1999/xlink" x="0px" y="0px" viewBox="0 0 1000 454.45"
	 style="enable-background:new 0 0 1000 454.45;" xml:space="preserve">
<style type="text/css">
	.st0{fill-rule:evenodd;clip-rule:evenodd;fill:#33D9B2;}
	.st1{fill-rule:evenodd;clip-rule:evenodd;fill:#FFFFFF;}
</style>
<sodipodi:namedview  bordercolor="#666666" borderopacity="1" gridtolerance="10" guidetolerance="10" id="namedview19" inkscape:current-layer="svg1936" inkscape:cx="426.12453" inkscape:cy="94.816171" inkscape:pageopacity="0" inkscape:pageshadow="2" inkscape:window-height="705" inkscape:window-maximized="1" inkscape:window-width="1366" inkscape:window-x="-8" inkscape:window-y="-8" inkscape:zoom="0.72245926" objecttolerance="10" pagecolor="#ffffff" showgrid="false">
	</sodipodi:namedview>
<path id="path8" inkscape:connector-curvature="0" class="st0" d="M620.38,388.77c-58.11,42.83-142.34,65.69-214.86,65.69
	c-101.68,0-193.23-37.61-262.48-100.16c-5.44-4.92-0.57-11.62,5.96-7.79c74.74,43.49,167.15,69.65,262.61,69.65
	c64.38,0,135.2-13.32,200.32-40.96C621.77,371.01,630,381.63,620.38,388.77"/>
<path id="path10" inkscape:connector-curvature="0" class="st0" d="M644.54,361.13c-7.4-9.49-49.1-4.48-67.82-2.26
	c-5.7,0.7-6.57-4.27-1.44-7.84c33.21-23.38,87.71-16.63,94.07-8.79c6.36,7.88-1.65,62.51-32.86,88.58c-4.79,4-9.36,1.87-7.23-3.44
	C636.27,409.88,651.98,370.66,644.54,361.13"/>
<path id="path12" inkscape:connector-curvature="0" class="st1" d="M578.03,186.01v-22.72c0-3.44,2.61-5.75,5.75-5.75H685.5
	c3.26,0,5.88,2.35,5.88,5.75v19.46c-0.04,3.26-2.79,7.53-7.66,14.28L631,272.28c19.59-0.48,40.26,2.44,58.02,12.45
	c4,2.26,5.09,5.57,5.4,8.84v24.25c0,3.31-3.66,7.18-7.49,5.18c-31.3-16.41-72.87-18.2-107.47,0.17c-3.53,1.92-7.23-1.92-7.23-5.22
	v-23.03c0-3.7,0.04-10.01,3.74-15.63l61.07-87.58H583.9C580.64,191.71,578.03,189.4,578.03,186.01"/>
<path id="path14" inkscape:connector-curvature="0" class="st1" d="M206.94,327.78h-30.95c-2.96-0.22-5.31-2.44-5.53-5.27V163.68
	c0-3.18,2.66-5.7,5.96-5.7h28.86c3,0.13,5.4,2.44,5.62,5.31v20.76h0.57c7.53-20.07,21.67-29.43,40.74-29.43
	c19.37,0,31.47,9.36,40.18,29.43c7.49-20.07,24.51-29.43,42.75-29.43c12.97,0,27.16,5.35,35.82,17.37
	c9.79,13.36,7.79,32.78,7.79,49.8l-0.04,100.25c0,3.18-2.66,5.75-5.96,5.75h-30.91c-3.09-0.22-5.57-2.7-5.57-5.75v-84.19
	c0-6.7,0.61-23.42-0.87-29.77c-2.31-10.66-9.23-13.67-18.2-13.67c-7.49,0-15.32,5.01-18.5,13.02c-3.18,8.01-2.87,21.42-2.87,30.43
	v84.19c0,3.18-2.66,5.75-5.96,5.75h-30.91c-3.13-0.22-5.57-2.7-5.57-5.75l-0.04-84.19c0-17.72,2.92-43.79-19.07-43.79
	c-22.24,0-21.37,25.42-21.37,43.79v84.19C212.9,325.22,210.25,327.78,206.94,327.78"/>
<path id="path16" inkscape:connector-curvature="0" class="st1" d="M778.96,154.62c45.92,0,70.78,39.44,70.78,89.58
	c0,48.45-27.47,86.88-70.78,86.88c-45.1,0-69.65-39.44-69.65-88.58C709.31,193.06,734.17,154.62,778.96,154.62 M779.22,187.05
	c-22.81,0-24.25,31.08-24.25,50.45c0,19.41-0.3,60.85,23.98,60.85c23.98,0,25.12-33.43,25.12-53.8c0-13.41-0.57-29.43-4.61-42.14
	C795.98,191.36,789.06,187.05,779.22,187.05"/>
<path id="path18" inkscape:connector-curvature="0" class="st1" d="M909.28,327.78h-30.82c-3.09-0.22-5.57-2.7-5.57-5.75
	l-0.04-158.88c0.26-2.92,2.83-5.18,5.96-5.18h28.69c2.7,0.13,4.92,1.96,5.53,4.44v24.29h0.57c8.66-21.72,20.81-32.08,42.18-32.08
	c13.89,0,27.42,5.01,36.13,18.72c8.1,12.71,8.1,34.08,8.1,49.45v99.99c-0.35,2.79-2.92,5.01-5.96,5.01H963
	c-2.83-0.22-5.18-2.31-5.48-5.01V236.5c0-17.37,2-42.79-19.37-42.79c-7.53,0-14.45,5.05-17.89,12.71
	c-4.35,9.71-4.92,19.37-4.92,30.08v85.54C915.29,325.22,912.59,327.78,909.28,327.78"/>
<path id="path28" inkscape:connector-curvature="0" class="st1" d="M496.93,251.91c0,12.06,0.3,22.11-5.79,32.82
	c-4.92,8.71-12.75,14.06-21.42,14.06c-11.88,0-18.85-9.05-18.85-22.42c0-26.38,23.64-31.17,46.05-31.17L496.93,251.91
	 M528.14,327.35c-2.05,1.83-5.01,1.96-7.31,0.74c-10.27-8.53-12.14-12.49-17.76-20.63c-16.98,17.32-29.03,22.5-51.02,22.5
	c-26.07,0-46.32-16.06-46.32-48.23c0-25.12,13.58-42.22,33-50.58c16.8-7.4,40.26-8.71,58.2-10.75v-4c0-7.36,0.57-16.06-3.79-22.42
	c-3.74-5.7-10.97-8.05-17.37-8.05c-11.8,0-22.29,6.05-24.86,18.59c-0.52,2.79-2.57,5.53-5.4,5.66l-29.99-3.22
	c-2.52-0.57-5.35-2.61-4.61-6.49c6.88-36.4,39.79-47.37,69.22-47.37c15.06,0,34.74,4,46.62,15.41
	c15.06,14.06,13.62,32.82,13.62,53.24v48.23c0,14.5,6.01,20.85,11.67,28.69c1.96,2.79,2.39,6.14-0.13,8.23
	c-6.31,5.27-17.54,15.06-23.72,20.55L528.14,327.35"/>
<path id="path30" inkscape:connector-curvature="0" class="st1" d="M91.19,251.91c0,12.06,0.3,22.11-5.79,32.82
	c-4.92,8.71-12.71,14.06-21.42,14.06c-11.88,0-18.8-9.05-18.8-22.42c0-26.38,23.64-31.17,46.01-31.17V251.91 M122.4,327.35
	c-2.05,1.83-5.01,1.96-7.31,0.74c-10.27-8.53-12.1-12.49-17.76-20.63c-16.98,17.32-28.99,22.5-51.02,22.5
	C20.28,329.96,0,313.9,0,281.73c0-25.12,13.62-42.22,33-50.58c16.8-7.4,40.26-8.71,58.2-10.75v-4c0-7.36,0.57-16.06-3.74-22.42
	c-3.79-5.7-11.01-8.05-17.37-8.05c-11.8,0-22.33,6.05-24.9,18.59c-0.52,2.79-2.57,5.53-5.35,5.66l-30.05-3.23
	c-2.52-0.57-5.31-2.61-4.61-6.49c6.92-36.39,39.79-47.36,69.21-47.36c15.06,0,34.74,4,46.62,15.41
	c15.06,14.06,13.62,32.82,13.62,53.24v48.23c0,14.5,6.01,20.85,11.67,28.69c2,2.79,2.44,6.14-0.09,8.23
	c-6.31,5.27-17.54,15.06-23.72,20.55L122.4,327.35"/>
</svg>
