<?xml version="1.0" encoding="utf-8"?>
<!-- Generator: Adobe Illustrator 24.3.0, SVG Export Plug-In . SVG Version: 6.00 Build 0)  -->
<svg version="1.1" id="Layer_1" xmlns="http://www.w3.org/2000/svg" xmlns:xlink="http://www.w3.org/1999/xlink" x="0px" y="0px"
	 viewBox="0 0 83 19.9" style="enable-background:new 0 0 83 19.9;" xml:space="preserve">
<style type="text/css">
	.st0{fill:#FFFFFF;}
	.st1{fill:#33D9B2;}
</style>
<g>
	<path class="st0" d="M48.6,6.3V14c0,2.1-1.1,3.5-3.1,3.5c-1.8,0-2.8-1.1-2.8-3.1V6.3H40v8.6c0,3.1,1.7,5,4.6,5c2,0,3.4-0.9,4.1-2.5
		h0.1v2.3h2.6L51.3,6.3H48.6z"/>
	<polygon class="st0" points="28.2,16 28.1,16 22.3,1.4 19.1,1.4 19.1,19.7 21.6,19.7 21.6,6.2 21.7,6.2 27.1,19.7 29.2,19.7 
		34.6,6.2 34.7,6.2 34.7,19.7 37.3,19.7 37.3,1.4 34,1.4 	"/>
	<path class="st0" d="M60.4,12.2l-2.1-0.5c-1.4-0.3-2-0.9-2-1.7c0-1.1,1-1.8,2.5-1.8s2.4,0.8,2.6,2.1h2.5c-0.1-2.5-2-4.2-5.1-4.2
		s-5.1,1.6-5.1,3.9c0,2,1.2,3.2,3.7,3.8l2.1,0.5c1.4,0.3,1.9,0.8,1.9,1.7c0,1.1-1,1.8-2.6,1.8s-2.6-0.7-2.8-2.1h-2.7
		c0.2,2.6,2.2,4.2,5.5,4.2c3.1,0,5.3-1.7,5.3-4.1C64.1,13.9,63.1,12.8,60.4,12.2z"/>
	<rect x="66.3" y="6.3" class="st0" width="2.7" height="13.4"/>
	<path class="st0" d="M77.3,17.5c-2.1,0-3.5-1.7-3.5-4.6c0-2.8,1.4-4.6,3.5-4.6c1.8,0,2.8,1.2,3.1,2.6l2.6-0.1
		C82.7,8.2,80.7,6,77.3,6c-3.8,0-6.2,2.7-6.2,6.9c0,4.3,2.4,6.9,6.2,6.9c3.2,0,5.4-2,5.7-4.8h-2.6C80,16.6,79,17.5,77.3,17.5z"/>
	<path class="st0" d="M67.7,1.2c-0.9,0-1.6,0.7-1.6,1.6s0.7,1.6,1.6,1.6c0.9,0,1.6-0.7,1.6-1.6S68.6,1.2,67.7,1.2z"/>
</g>
<g>
	<path class="st1" d="M10.8,3.2c0.7-0.9,1.1-2.1,1-3.2c-1,0-2.2,0.6-2.9,1.5c-0.6,0.7-1.2,1.9-1,3.1C9,4.7,10.1,4,10.8,3.2z"/>
	<path class="st1" d="M5.2,19.8c1.2,0,1.7-0.8,3.2-0.8s1.9,0.8,3.2,0.8s2.2-1.2,3-2.4c0.9-1.4,1.3-2.7,1.3-2.8c0,0-2.6-1-2.6-4
		c0-2.5,2-3.7,2.1-3.8c-1.2-1.8-3-2-3.6-2c-1.6-0.1-3,0.9-3.7,0.9S6.2,4.8,4.9,4.8c-1.6,0-3.2,1-4,2.5c-1.8,3-0.5,7.5,1.2,10
		C2.9,18.5,3.9,19.8,5.2,19.8z"/>
</g>
</svg>
