<?xml version="1.0" encoding="utf-8"?>
<!-- Generator: Adobe Illustrator 24.3.0, SVG Export Plug-In . SVG Version: 6.00 Build 0)  -->
<svg version="1.1" id="Calque_1" xmlns="http://www.w3.org/2000/svg" xmlns:xlink="http://www.w3.org/1999/xlink" x="0px" y="0px"
	 viewBox="0 0 1000 263.1" style="enable-background:new 0 0 1000 263.1;" xml:space="preserve">
<style type="text/css">
	.st0{fill:#33D9B2;}
	.st1{fill:#FFFFFF;}
</style>
<g>
	<path class="st0" d="M0,180.33c0.28-0.26,0.65-0.46,0.83-0.78c17.87-30.92,35.72-61.85,53.59-92.76
		C70.05,59.74,85.7,32.71,101.35,5.67c0.52-0.9,1.01-1.83,1.62-2.66c2.93-4.03,8.76-4.01,11.68,0.02c0.42,0.58,0.76,1.22,1.12,1.84
		c47.34,82.07,94.69,164.15,142.04,246.21c1.2,2.07,2.08,4.14,1.37,6.58c-0.83,2.87-2.66,4.69-5.62,5.23
		c-0.94,0.17-1.91,0.19-2.86,0.19c-10.8,0.01-21.59,0.02-32.39,0.01c-28.63-0.03-57.26-0.07-85.89-0.1
		c-26.55-0.03-53.1-0.05-79.65-0.08c-0.64,0-1.28,0.01-1.92-0.03c-5.33-0.29-8.47-5.56-6.17-10.37c0.48-1.01,1.09-1.95,1.65-2.92
		c8.52-14.73,17.1-29.42,25.53-44.21c1.97-3.45,4.59-4.96,8.54-4.94c20.79,0.09,41.59,0.06,62.38,0.07c1.04,0,2.11,0.05,3.1-0.18
		c4.17-0.94,6.53-5.62,4.88-9.59c-0.3-0.73-0.71-1.43-1.11-2.12c-11.37-19.73-22.75-39.45-34.12-59.17
		c-0.24-0.42-0.48-0.83-0.74-1.23c-3.03-4.6-9.24-4.62-12.14,0.09c-2.89,4.69-5.56,9.52-8.32,14.29
		c-8.08,13.97-16.22,27.9-24.21,41.92c-1.96,3.44-4.54,4.99-8.52,4.97c-17.51-0.11-35.03-0.11-52.54-0.04
		c-3.81,0.01-6.73-1.09-8.3-4.78c-0.1-0.23-0.48-0.34-0.74-0.51C0,182.89,0,181.61,0,180.33z"/>
	<path class="st1" d="M1000,174.57c-0.14,0.36-0.37,0.71-0.4,1.07c-0.74,8.31-4.96,14.51-11.7,19.14c-5.12,3.51-10.91,5.33-17,6.06
		c-13.91,1.67-27.24-0.44-39.82-6.74c-3.87-1.94-7.45-4.34-10.74-7.17c-0.29-0.25-0.54-0.56-0.92-0.97
		c4.71-5.62,9.36-11.17,14.17-16.92c0.72,0.51,1.36,0.95,1.98,1.41c6.49,4.74,13.61,8.08,21.63,9.11c3.22,0.41,6.53,0.34,9.79,0.23
		c1.38-0.05,2.84-0.58,4.08-1.23c4.03-2.12,4.26-7.13,0.35-9.47c-1.96-1.17-4.18-2.02-6.38-2.65c-5.45-1.55-11.01-2.71-16.43-4.35
		c-3.88-1.18-7.66-2.74-11.36-4.41c-3.3-1.49-6.13-3.74-8.47-6.55c-3.25-3.9-4.74-8.48-5-13.46c-0.76-14.36,7.06-25.35,21.05-29.74
		c5.24-1.65,10.62-2.13,16.09-2.07c12.19,0.15,23.57,2.97,33.69,10.02c0.97,0.68,1.9,1.42,2.97,2.23
		c-4.29,6.05-8.48,11.97-12.76,18.02c-0.83-0.5-1.57-0.92-2.29-1.38c-6.16-3.89-12.74-6.68-20.05-7.39
		c-2.43-0.24-4.93-0.02-7.38,0.23c-1.06,0.1-2.16,0.64-3.07,1.25c-3.18,2.1-3.32,6.55-0.18,8.69c1.62,1.1,3.52,1.93,5.41,2.47
		c4.99,1.41,10.05,2.56,15.08,3.86c5.04,1.31,9.95,2.97,14.53,5.48c3.11,1.7,5.95,3.76,8.19,6.54c2.51,3.11,4.23,6.56,4.51,10.63
		c0.04,0.62,0.28,1.22,0.42,1.83C1000,170.42,1000,172.5,1000,174.57z"/>
	<path class="st1" d="M585.02,107.51c0.56-0.04,0.95-0.09,1.34-0.09c12.47,0.01,24.94-0.12,37.41,0.08
		c8.54,0.14,16.83,1.85,24.56,5.66c14.34,7.08,22.27,18.66,24.02,34.52c0.85,7.75,0.11,15.33-2.65,22.63
		c-4.87,12.86-14.23,21.12-26.96,25.81c-7.36,2.71-15.04,3.67-22.83,3.72c-11.03,0.08-22.06,0.02-33.09,0.02
		c-0.54,0-1.09-0.06-1.79-0.09C585.02,169.01,585.02,138.38,585.02,107.51z M610.56,177.04c5.88-0.19,11.57,0.5,17.18-0.62
		c7.37-1.47,13.23-5.09,16.48-12.16c1.67-3.62,2.15-7.48,2.11-11.44c-0.13-11.29-6.98-19.63-18.05-21.9
		c-5.7-1.17-11.46-0.76-17.2-0.66c-0.14,0-0.27,0.15-0.52,0.29C610.56,145.88,610.56,161.27,610.56,177.04z"/>
	<path class="st1" d="M853.02,107.52c8.83,0,17.28,0,25.86,0c0.07,0.53,0.19,0.98,0.19,1.43c0,17.49,0.04,34.99-0.07,52.48
		c-0.03,5.45-0.98,10.81-2.82,15.97c-3.69,10.36-10.7,17.55-21.1,21.07c-12.4,4.2-25.03,4.31-37.47,0.36
		c-13.15-4.18-20.71-13.63-23.4-26.98c-0.78-3.89-1.18-7.92-1.21-11.88c-0.13-16.69-0.06-33.39-0.05-50.09
		c0-0.71,0.06-1.42,0.1-2.29c8.6,0,17.1,0,25.96,0c0,0.91,0,1.84,0,2.77c0,15.66-0.02,31.31,0.02,46.97
		c0.01,2.31,0.11,4.64,0.47,6.91c1.77,11.1,9.78,14.94,18.84,14.02c8.14-0.82,13.16-5.86,14.28-14.03c0.25-1.81,0.37-3.66,0.37-5.49
		c0.03-16.06,0.02-32.11,0.02-48.17C853.02,109.62,853.02,108.68,853.02,107.52z"/>
	<path class="st1" d="M450.06,107.54c8.73,0,17.17,0,25.91,0c0,1.04,0,1.98,0,2.91c0,15.66-0.02,31.33,0.02,46.99
		c0.01,2.23,0.12,4.48,0.46,6.68c1.8,11.52,10.24,15.19,19.23,14.09c7.84-0.96,12.52-5.61,13.82-13.4c0.33-1.96,0.47-3.97,0.48-5.96
		c0.04-16.06,0.02-32.13,0.02-48.19c0-0.95,0-1.91,0-3.17c8.63-0.14,17.14-0.03,25.78-0.07c0.09,0.65,0.23,1.18,0.23,1.7
		c0,17.34,0.01,34.68-0.05,52.02c-0.02,5.22-0.86,10.35-2.49,15.32c-3.94,11.93-12.11,19.56-24.13,22.9
		c-10.6,2.95-21.35,3.03-32.01,0.29c-14.63-3.77-23.27-13.36-26.21-28.04c-0.75-3.73-1.09-7.61-1.12-11.42
		c-0.12-16.78-0.05-33.56-0.05-50.35C449.96,109.14,450.02,108.43,450.06,107.54z"/>
	<path class="st1" d="M350.93,106.9c0.79-0.05,1.42-0.13,2.05-0.13c6.88-0.01,13.75,0.05,20.63-0.05c1.64-0.02,2.4,0.54,3.01,2
		c12.52,29.72,25.09,59.42,37.64,89.12c0.21,0.51,0.38,1.03,0.64,1.74c-0.53,0.11-0.96,0.26-1.39,0.27
		c-8.07,0.02-16.15-0.02-24.22,0.05c-1.39,0.01-1.97-0.57-2.43-1.74c-1.64-4.16-3.34-8.29-5.04-12.43c-0.33-0.8-0.7-1.58-1.07-2.39
		c-11.83,0-23.57,0-35.48,0c-2.21,5.47-4.41,10.92-6.63,16.42c-8.9,0-17.68,0-26.44,0c-0.06-0.09-0.11-0.15-0.14-0.21
		c-0.04-0.07-0.1-0.16-0.08-0.21c0.23-0.67,0.45-1.36,0.73-2.01C325.44,167.19,338.18,137.05,350.93,106.9z M373.04,163.19
		c-0.65-3.13-8.98-24-10.13-25.33c-3.33,8.4-6.63,16.74-10.04,25.33C359.86,163.19,366.44,163.19,373.04,163.19z"/>
	<path class="st1" d="M718.42,107.5c8.58,0,16.95,0,25.5,0c0,30.72,0,61.36,0,91.98c-1.79,0.47-22.35,0.59-25.5,0.14
		C718.42,169.01,718.42,138.37,718.42,107.5z"/>
</g>
</svg>
