<?xml version="1.0" encoding="utf-8"?>
<!-- Generator: Adobe Illustrator 24.3.0, SVG Export Plug-In . SVG Version: 6.00 Build 0)  -->
<svg version="1.1"
	 id="svg2" xmlns:cc="http://creativecommons.org/ns#" xmlns:dc="http://purl.org/dc/elements/1.1/" xmlns:rdf="http://www.w3.org/1999/02/22-rdf-syntax-ns#" xmlns:svg="http://www.w3.org/2000/svg"
	 xmlns="http://www.w3.org/2000/svg" xmlns:xlink="http://www.w3.org/1999/xlink" x="0px" y="0px" viewBox="0 0 1974.48 376.13"
	 style="enable-background:new 0 0 1974.48 376.13;" xml:space="preserve">
<style type="text/css">
	.st0{fill:#FFFFFF;}
	.st1{fill:#33D9B2;}
</style>
<path id="path14" class="st0" d="M499.78,159.53c-31.79,0-48.04,25.02-48.04,62.72c0,35.63,17.57,62.38,48.04,62.38
	c34.46,0,47.38-31.53,47.38-62.38c-0.02-32.21-16.26-62.72-47.39-62.72 M415.3,65.98h37.77v90.47h0.67
	c10.27-17.13,31.8-27.76,51.02-27.76c53.99,0,80.17,42.51,80.17,94.26c0,47.62-23.19,92.52-73.88,92.52
	c-23.19,0-48.04-5.81-59.31-29.12h-0.66v24.34H415.3V65.98L415.3,65.98"/>
<path id="path16" class="st0" d="M715.86,251.05c0,24.67-25.84,33.59-42.41,33.59c-13.26,0-34.8-5.16-34.8-22.63
	c0-20.57,14.58-26.74,30.82-29.49c16.56-3.08,34.78-2.73,46.38-10.61L715.86,251.05z M877.48,128.69
	c-22.53,0-42.08,11.99-53.34,31.54l-0.66-0.7v-26.04H787.7v150.9c-21.54,0.24-23.55,0.24-25.19,0.24c-6.95,0-8.95-3.77-8.95-13.37
	v-91.17c0-37.35-35.11-51.41-68.59-51.41c-37.77,0-75.2,13.36-77.84,58.96h37.76c1.66-19.19,16.56-28.11,37.77-28.11
	c15.24,0,35.45,3.78,35.45,24c0,22.96-24.19,19.87-51.35,25.02c-31.8,3.76-65.92,10.97-65.92,55.16c0,34.63,27.82,51.75,58.63,51.75
	c20.21,0,44.39-6.51,59.31-21.57c2.97,16.1,13.91,21.57,29.15,21.57c6.29,0,18.22-2.39,77.3-4.45v-0.35h0.23v-104.5
	c0-26.06,16.24-46.62,41.41-46.62c22.2,0,32.81,12,33.46,39.76v111.38h37.78V189.02c0.07-39.75-23.46-60.32-60.57-60.32"/>
<path id="path18" class="st0" d="M1048.12,284.64c33.79,0,48.04-31.88,48.04-62.73c0-39.05-18.22-62.38-47.38-62.38
	c-35.45,0-48.04,32.56-48.04,64.43C1000.74,254.47,1015.31,284.63,1048.12,284.64 M1132.6,310.68h-35.79v-23.99h-0.65
	c-9.94,20.22-31.48,28.78-53.01,28.78c-53.99,0-80.17-41.47-80.17-94.58c0-64.09,36.78-92.19,74.22-92.19
	c21.52,0,45.37,8.23,56.97,27.75h0.67V65.99h37.76V310.68L1132.6,310.68"/>
<path id="path20" class="st0" d="M1282.68,192.79c-2.99-21.59-18.22-33.25-39.09-33.25c-19.56,0-47.05,10.63-47.05,64.44
	c0,29.48,12.58,60.67,45.39,60.67c21.86,0,37.1-15.1,40.75-40.46h37.76c-6.96,45.92-34.45,71.29-78.51,71.29
	c-53.67,0-83.16-39.4-83.16-91.5c0-53.46,28.16-95.27,84.48-95.27c39.75,0,73.56,20.56,77.19,64.09h-37.7L1282.68,192.79"/>
<path id="path22" class="st0" d="M1450.35,251.05c0,24.67-25.84,33.59-42.41,33.59c-13.24,0-34.77-5.16-34.77-22.63
	c0-20.57,14.59-26.74,30.8-29.49c16.57-3.08,34.8-2.73,46.39-10.61L1450.35,251.05z M1713.41,128.69
	c-24.85,0-41.08,11.32-53.67,29.48c-7.63-20.21-27.17-29.48-48.05-29.48c-27.16,0-41.41,11.99-52.67,29.48h-1v-24.68h-35.8v150.9
	c-21.53,0.24-23.53,0.24-25.2,0.24c-6.95,0-8.93-3.77-8.93-13.37v-91.17c0-37.35-35.11-51.41-68.59-51.41
	c-37.76,0-75.2,13.36-77.85,58.96h37.77c1.65-19.19,16.57-28.11,37.77-28.11c15.24,0,35.44,3.78,35.44,24
	c0,22.96-24.19,19.87-51.35,25.02c-31.81,3.76-65.93,10.97-65.93,55.16c0,34.63,27.83,51.75,58.64,51.75
	c20.21,0,44.39-6.51,59.31-21.57c2.97,16.1,13.91,21.57,29.16,21.57c6.28,0,18.21-2.39,76.76-4.45v-0.35h0.77V205.47
	c0-29.47,17.89-45.93,37.44-45.93c22.85,0,30.15,13.02,30.15,37.37v113.77h37.76V206.84c0-29.82,10.93-47.3,36.45-47.3
	c29.48,0,31.13,19.53,31.13,47.65v103.49h37.77V188.34C1770.7,145.15,1749.52,128.7,1713.41,128.69"/>
<path id="path24" class="st0" d="M1889.33,159.53c-31.8,0-48.04,25.02-48.04,62.72c0,35.63,17.56,62.38,48.04,62.38
	c34.45,0,47.39-31.53,47.39-62.38C1936.72,190.05,1920.45,159.53,1889.33,159.53 M1804.85,133.49h35.79v23.99h0.67
	c10.6-20.21,31.13-28.79,53-28.79c54,0,80.17,42.51,80.17,94.26c0,47.62-23.19,92.52-73.87,92.52c-21.87,0-45.4-8.22-57.32-27.74
	h-0.67v88.4h-37.77V133.51L1804.85,133.49"/>
<path id="path26" class="st1" d="M283.26,310.16H0L132.28,65.98h283.26L283.26,310.16"/>
</svg>
