<?xml version="1.0" encoding="utf-8"?>
<!-- Generator: Adobe Illustrator 24.3.0, SVG Export Plug-In . SVG Version: 6.00 Build 0)  -->
<svg version="1.1"
	 id="Calque_1" inkscape:version="0.92.4 (5da689c313, 2019-01-14)" sodipodi:docname="index.svg" xmlns:cc="http://creativecommons.org/ns#" xmlns:dc="http://purl.org/dc/elements/1.1/" xmlns:inkscape="http://www.inkscape.org/namespaces/inkscape" xmlns:rdf="http://www.w3.org/1999/02/22-rdf-syntax-ns#" xmlns:sodipodi="http://sodipodi.sourceforge.net/DTD/sodipodi-0.dtd" xmlns:svg="http://www.w3.org/2000/svg"
	 xmlns="http://www.w3.org/2000/svg" xmlns:xlink="http://www.w3.org/1999/xlink" x="0px" y="0px" viewBox="0 0 1000 191.2"
	 style="enable-background:new 0 0 1000 191.2;" xml:space="preserve">
<style type="text/css">
	.st0{fill:#FFFFFF;}
	.st1{fill-rule:evenodd;clip-rule:evenodd;fill:#33D9B2;}
</style>
<path id="path8175" inkscape:connector-curvature="0" class="st0" d="M234.1,126.9c0,40.1,24.7,64.1,61.4,64.1
	c18.3,0,33.7-5.1,42.3-18.5V191h33.5V0h-34.8v81.2c-7.9-13.4-22.5-19.4-40.8-19.4C259.9,61.7,234.1,86.2,234.1,126.9L234.1,126.9z
	 M337.6,126.9c0,22.9-15.6,37.2-34.3,37.2c-19.4,0-34.3-14.3-34.3-37.2c0-23.3,15-37.9,34.3-37.9C322,89,337.6,103.8,337.6,126.9z"
	/>
<path id="path8177" inkscape:connector-curvature="0" class="st0" d="M479.6,141.7c-4,14.8-14.1,22.2-30,22.2
	c-18.5,0-33.7-11.2-34.1-31h87.7c1.1-4.9,1.6-10.1,1.6-15.8c0-35.5-24.2-55.5-59.9-55.5c-38.1,0-64.3,27.1-64.3,63.9
	c0,41,28.9,65.6,68.9,65.6c30.2,0,50.7-12.6,59.7-37.7L479.6,141.7z M415.5,109.7C418.8,95.4,430.7,87,445,87
	c15.6,0,26.2,8.4,26.2,21.6l-0.2,1.1C471,109.7,415.5,109.7,415.5,109.7z"/>
<path id="path8179" inkscape:connector-curvature="0" class="st0" d="M608.7,141.7c-4,14.8-14.1,22.2-30,22.2
	c-18.5,0-33.7-11.2-34.1-31h87.7c1.1-4.9,1.6-10.1,1.6-15.8c0-35.5-24.2-55.5-59.9-55.5c-38.1,0-64.3,27.1-64.3,63.9
	c0,41,28.9,65.6,68.9,65.6c30.2,0,50.7-12.6,59.7-37.7L608.7,141.7z M544.6,109.7c3.3-14.3,15.2-22.7,29.5-22.7
	c15.6,0,26.2,8.4,26.2,21.6l-0.2,1.1H544.6z"/>
<path id="path8181" inkscape:connector-curvature="0" class="st0" d="M756.7,191.2v-31.5h-73.1l71.1-69.2V61.7H642.2v30h68.7
	L640,161.2v30H756.7z"/>
<path id="path8183" inkscape:connector-curvature="0" class="st0" d="M858.4,141.7c-4,14.8-14.1,22.2-30,22.2
	c-18.5,0-33.7-11.2-34.1-31H882c1.1-4.9,1.6-10.1,1.6-15.8c0-35.5-24.2-55.5-59.9-55.5c-38.1,0-64.3,27.1-64.3,63.9
	c0,41,28.9,65.6,68.9,65.6c30.2,0,50.7-12.6,59.7-37.7L858.4,141.7z M794.3,109.7c3.3-14.3,15.2-22.7,29.5-22.7
	c15.6,0,26.2,8.4,26.2,21.6l-0.2,1.1H794.3z"/>
<g>
	<rect id="rect8185" x="155.5" y="61.7" class="st1" width="42.9" height="25.1"/>
	<rect id="rect8192" x="155.5" y="96.5" class="st1" width="42.9" height="25.1"/>
	<rect id="rect8199" x="155.5" y="131.3" class="st1" width="42.9" height="25.1"/>
	<rect id="rect8206" y="166.1" class="st1" width="42.9" height="25.1"/>
	<rect id="rect8213" x="51.8" y="166.1" class="st1" width="42.9" height="25.1"/>
	<rect id="rect8220" x="103.7" y="166.1" class="st1" width="42.9" height="25.1"/>
	<rect id="rect8227" x="155.5" y="166.1" class="st1" width="42.9" height="25.1"/>
	<rect id="rect8234" x="103.7" y="131.3" class="st1" width="42.9" height="25.1"/>
	<rect id="rect8241" x="51.8" y="131.3" class="st1" width="42.9" height="25.1"/>
	<rect id="rect8248" x="51.8" y="96.5" class="st1" width="42.9" height="25.1"/>
</g>
<path id="path8250" inkscape:connector-curvature="0" class="st0" d="M966.1,106.4c0,1.3,0,3.7,0,3.7h33.9c0,0,0-6.4,0-9.9
	c0-22.2-13.9-38.3-37.2-38.3c-15,0-25.6,7.3-31.1,19.4V61.9h-35v129.3h35v-83.3c0-13.2,7.1-20.5,18-20.5
	C959.7,87.5,966.1,96.9,966.1,106.4z"/>
</svg>
