<?xml version="1.0" encoding="utf-8"?>
<!-- Generator: Adobe Illustrator 24.3.0, SVG Export Plug-In . SVG Version: 6.00 Build 0)  -->
<svg version="1.1" id="Calque_1" xmlns="http://www.w3.org/2000/svg" xmlns:xlink="http://www.w3.org/1999/xlink" x="0px" y="0px"
	 viewBox="0 0 294.9 57.19" style="enable-background:new 0 0 294.9 57.19;" xml:space="preserve">
<style type="text/css">
	.st0{fill-rule:evenodd;clip-rule:evenodd;fill:#FFFFFF;}
	.st1{fill:#33D9B2;}
	.st2{fill:#FFFFFF;}
</style>
<g>
	<path class="st0" d="M196.42,21.43c-3.29-0.35-6.13,0.65-8.54,3.54V7.24l-8.71,1.05v41.04h8.71V46.9c1.17,0.84,2.32,1.85,3.65,2.32
		c5.07,1.82,11.76,0.34,14.1-6.45c1.5-4.35,1.46-8.81,0.33-13.22C204.71,24.67,201.46,21.97,196.42,21.43z M197.72,39.21
		c-0.38,2.71-2.54,4.12-5.09,3.93c-0.64-0.05-1.22-0.18-1.74-0.38c-2.06-1.18-2.68-3.16-2.87-4.41c0,0,0,0,0,0
		c-0.14-1.92-0.29-5.95,0.65-7.85c0.8-1.46,2.19-2.25,4.03-2.31c2.62-0.09,4.6,1.21,4.99,3.87
		C198.04,34.4,198.06,36.87,197.72,39.21L197.72,39.21z"/>
	<path class="st0" d="M227.27,21.94c-3.02-0.81-6.08-0.8-9.1,0.01c-4.52,1.2-7.55,4.06-8.52,8.61c-0.53,2.48-0.64,5.12-0.5,7.67
		c0.32,5.82,3.92,9.97,9.51,11.26c0.08,0.02,0.16,0.03,0.24,0.05h0c0,0,0.02,0,0.04,0.01c0.21,0.04,0.43,0.08,0.65,0.12
		c0.07,0.01,0.15,0.01,0.22,0.02h0.01c0.27,0.05,0.6,0.09,0.94,0.11c1.09,0.12,2.49,0.2,3.65,0.06c0.01,0,0.01,0,0.02,0
		c0.06,0,0.12,0,0.18,0c5.77-0.3,10.15-3.94,11.43-9.52c0.7-3.06,0.7-6.14,0.02-9.2C234.98,26.32,232.06,23.22,227.27,21.94
		L227.27,21.94z M227.64,38.77c-0.03,0.18-0.06,0.36-0.1,0.54c-0.58,2.57-2.44,3.96-4.93,3.84c-2.67-0.12-4.51-1.69-4.77-4.36
		c-0.19-1.95-0.2-3.94-0.04-5.9c0.25-3.08,2.18-4.77,5.07-4.71c2.38,0.05,4.07,1.39,4.67,3.68
		C228.1,34.16,227.69,38.24,227.64,38.77z"/>
	<path class="st0" d="M96.59,21.8h-6.21v-4.13c0.45-3.91,6.91-3.16,6.91-3.16l0-0.27l0-0.03V7.79h0v0h-0.01
		c-0.22-0.05-12.83-3.05-15.34,6.55c0,0,0,0.01,0,0.01c0,0.02-0.01,0.04-0.02,0.06c-0.39,1.2-0.37,6.7-0.36,7.39h-5.39v7.35h5.72
		v19.99h8.33V29.15h6.37l0.72-7.35C97.31,21.8,96.59,21.8,96.59,21.8z"/>
	<path class="st0" d="M116.45,25.31c-0.1-0.11-0.2-0.22-0.29-0.31v0c-0.01-0.01-0.03-0.03-0.04-0.04c-0.12-0.13-0.21-0.21-0.21-0.21
		c-1.96-1.99-2.7-2.49-4.24-2.94c-5.91-1.74-11.66,1.35-13.48,7.3c-1.12,3.65-1.13,7.41-0.48,11.11c1.42,8.01,7.37,10.69,13.72,9.37
		c1.95-0.41,3.4-1.62,4.74-3.31c0,0,0.12-0.15,0.27-0.44v3.52h8.12V21.83h-8.12L116.45,25.31L116.45,25.31z M115.74,39.17
		c-0.27,2.55-2.33,4.07-4.77,3.98c-2.5-0.1-4.15-1.43-4.69-3.83c-0.65-3.41,0.11-7.45,0.17-7.78c0.65-2.29,2.31-3.42,4.75-3.36
		c2.4,0.05,4.24,1.47,4.51,3.95C115.98,34.45,115.99,36.84,115.74,39.17z"/>
	<path class="st0" d="M149.39,47.39c-0.38-1.38-0.81-2.74-1.22-4.05l-0.39-1.46c0,0-10.18,4.89-11.77-4.4
		c-0.15-1.53-0.1-3.12,0.11-4.63c0.4-2.85,2.14-4.38,4.91-4.65c0.94-0.09,1.91-0.04,2.84,0.11c1.26,0.21,2.49,0.59,3.88,0.93
		c0.48-1.47,0.97-2.92,1.43-4.39c0.07-0.23,0.13-0.43,0.18-0.6h0l0.23-0.88c-0.06-0.12-0.2-0.24-0.38-0.36v0
		c-0.23-0.2-0.63-0.36-1.26-0.59c-0.25-0.09-0.5-0.17-0.75-0.25c-0.22-0.07-0.37-0.11-0.37-0.11h0c-2.68-0.76-5.42-0.82-8.21-0.53
		c-5.88,0.62-9.87,4.09-10.98,9.82c-0.58,3.01-0.55,6.06,0.11,9.09c1,4.53,3.74,7.45,8.2,8.76c2.91,0.85,5.89,0.9,8.86,0.43
		c1.25-0.19,3.04-0.84,4.32-1.3l0.49-0.17L149.39,47.39L149.39,47.39L149.39,47.39z"/>
	<path class="st0" d="M176.2,36.62c-0.04-1.91-0.01-3.82-0.28-5.69c-0.74-5.14-3.87-8.39-8.93-9.24c-1.93-0.32-3.97-0.28-5.93-0.09
		c-5.37,0.51-9.44,3.85-10.28,8.89c-0.51,3.05-0.57,6.29-0.16,9.36c0.62,4.61,2.86,7.55,6.75,8.96h0c0.02,0,0.03,0,0.05,0.01
		c0,0,0,0,0,0c1.77,0.53,10.45,2.8,18.1-1.04l-0.31-1.13c0,0-0.01,0-0.01,0c-0.35-1.5-0.78-2.99-1.18-4.48l-0.04-0.15
		c0,0-0.16,0.06-0.44,0.15c-0.01,0-0.01,0-0.02,0c-0.33,0.09-0.66,0.19-0.99,0.3c-0.06,0.02-0.12,0.04-0.18,0.06
		c-1.16,0.33-2.81,0.73-4.56,0.95c-1.47,0.15-2.95,0.15-4.45,0.03c-2.43-0.4-4.29-1.7-4.2-4.78h1.39c4.76,0,9.52,0,14.29,0
		c0.11,0,0.23,0,0.34,0l0,0c0,0,1.02-0.01,1.07-0.02c0,0,0-0.27,0-0.3L176.2,36.62L176.2,36.62z M168.37,32.86h-9.41
		c0.05-1.87,0.28-3.61,1.95-4.67c1.77-1.12,3.72-1.16,5.53-0.16C168.28,29.05,168.42,30.88,168.37,32.86z"/>
	<polygon class="st0" points="294.9,22.11 285.67,22.11 277.65,34.65 277.65,8.49 277.65,8.32 277.65,7.26 268.94,8.32 
		268.94,49.36 277.65,49.36 277.65,36.8 285.67,49.38 294.9,49.38 286.2,35.72 	"/>
	<path class="st0" d="M256.96,21.94c-3.03-0.81-6.08-0.8-9.1,0c-4.52,1.2-7.55,4.06-8.52,8.61c-0.53,2.48-0.64,5.12-0.5,7.67
		c0.32,5.82,3.92,9.97,9.51,11.26c0.08,0.02,0.16,0.03,0.24,0.05h0c0,0,0.01,0,0.04,0.01c0.21,0.04,0.43,0.08,0.65,0.11
		c0.07,0.01,0.15,0.01,0.22,0.02c0,0,0,0,0.01,0c0.27,0.05,0.6,0.09,0.94,0.11c1.1,0.12,2.49,0.2,3.65,0.06c0.01,0,0.01,0,0.02,0
		c0.06,0,0.12,0,0.18,0c5.77-0.3,10.15-3.94,11.43-9.52c0.7-3.06,0.7-6.14,0.02-9.2C264.66,26.31,261.75,23.22,256.96,21.94
		L256.96,21.94z M257.33,38.76c-0.03,0.18-0.06,0.36-0.1,0.54c-0.58,2.57-2.44,3.96-4.93,3.84c-2.67-0.12-4.51-1.69-4.77-4.36
		c-0.19-1.95-0.2-3.94-0.04-5.9c0.26-3.08,2.18-4.77,5.08-4.71c2.37,0.05,4.07,1.39,4.67,3.68
		C257.78,34.15,257.38,38.24,257.33,38.76z"/>
</g>
<rect class="st1" width="57.19" height="57.19"/>
<g>
	<path class="st2" d="M41.56,22.11c0-2.17,0.2-3.34,3.31-3.34h4.15v-8.31h-6.64c-7.99,0-10.8,4.04-10.8,10.8v5h-4.97v8.31h4.97
		v22.61h9.98V34.58h6.64l0.88-8.31h-7.52V22.11z"/>
	<polygon class="st2" points="49.08,26.27 49.08,26.27 49.08,26.27 	"/>
</g>
</svg>
