<?xml version="1.0" encoding="utf-8"?>
<!-- Generator: Adobe Illustrator 24.3.0, SVG Export Plug-In . SVG Version: 6.00 Build 0)  -->
<svg version="1.1"
	 id="Calque_1" xmlns:cc="http://creativecommons.org/ns#" xmlns:dc="http://purl.org/dc/elements/1.1/" xmlns:rdf="http://www.w3.org/1999/02/22-rdf-syntax-ns#" xmlns:svg="http://www.w3.org/2000/svg"
	 xmlns="http://www.w3.org/2000/svg" xmlns:xlink="http://www.w3.org/1999/xlink" x="0px" y="0px" viewBox="0 0 1059.03 284.66"
	 style="enable-background:new 0 0 1059.03 284.66;" xml:space="preserve">
<style type="text/css">
	.st0{fill:#FFFFFF;}
	.st1{fill:#33D9B2;}
</style>
<path class="st0" d="M307.79,60.78c-16.21,6.79-34.03,25.96-39.66,50.02c-7.13,30.49,22.53,43.38,24.97,39.15
	c2.86-4.97-5.32-6.65-7-22.46c-2.18-20.43,7.32-43.26,19.28-53.28c2.22-1.86,2.12,0.73,2.12,5.52c0,8.57-0.47,85.48-0.47,101.53
	c0,21.72-0.9,28.58-2.51,35.36c-1.63,6.87-4.26,11.51-2.27,13.3c2.22,2,11.71-2.76,17.2-10.42c6.59-9.19,8.89-20.23,9.3-32.22
	c0.5-14.45,0.48-37.39,0.5-50.47c0.02-12,0.2-47.13-0.21-68.25C328.93,63.37,314.57,57.93,307.79,60.78 M883.41,162.43
	c-0.52,11.29-3.02,20.12-6.12,26.34c-6.01,12.05-18.47,15.79-23.76-1.53c-2.88-9.44-3.02-25.22-0.95-38.4
	c2.11-13.43,8-23.56,17.76-22.65C879.97,127.1,884.47,139.5,883.41,162.43L883.41,162.43z M721.18,232.48
	c-0.13,18.76-3.08,35.21-9.42,39.99c-8.98,6.77-21.05,1.69-18.55-12c2.21-12.11,12.67-24.49,27.99-39.6
	C721.2,220.87,721.23,224.32,721.18,232.48L721.18,232.48z M718.72,162.32c-0.55,10.28-3.22,20.62-6.12,26.45
	c-6,12.05-18.56,15.82-23.76-1.53c-3.56-11.85-2.7-27.2-0.95-36.86c2.28-12.54,7.82-24.18,17.76-24.18
	C715.32,126.2,720.09,136.8,718.72,162.32L718.72,162.32z M624.74,162.16c-0.59,10.89-2.71,20-6.12,26.61
	c-6.17,11.97-18.38,15.76-23.76-1.53c-3.88-12.47-2.56-29.48-0.95-38.66c2.4-13.63,8.39-23.3,17.76-22.38
	C621.29,127.14,625.97,139.5,624.74,162.16L624.74,162.16z M1055.44,174.88c-2.35,0-3.42,2.42-4.31,6.5
	c-3.08,14.19-6.32,17.39-10.49,17.39c-4.66,0-8.85-7.02-9.93-21.09c-0.85-11.06-0.71-31.41,0.37-51.66
	c0.22-4.16-0.93-8.28-12.09-12.33c-4.8-1.74-11.78-4.31-15.26,4.08c-9.82,23.7-13.66,42.52-14.57,50.16
	c-0.05,0.4-0.53,0.48-0.62-0.45c-0.58-6.12-1.86-17.25-2.02-40.62c-0.03-4.56-1-8.44-6.03-11.62c-3.27-2.06-13.18-5.71-16.76-1.37
	c-3.09,3.55-6.68,13.1-10.4,24.42c-3.03,9.2-5.13,15.43-5.13,15.43s0.04-24.83,0.08-34.24c0.02-3.55-2.42-4.74-3.16-4.95
	c-3.31-0.96-9.82-2.56-12.59-2.56c-3.41,0-4.25,1.91-4.25,4.69c0,0.36-0.54,32.69-0.54,55.29c0,0.98,0,2.05,0.01,3.19
	c-1.89,10.39-8.01,24.49-14.67,24.49c-6.67,0-9.81-5.9-9.81-32.84c0-15.72,0.47-22.55,0.7-33.92c0.13-6.55,0.39-11.58,0.38-12.72
	c-0.05-3.5-6.1-5.26-8.92-5.91c-2.83-0.66-5.29-0.91-7.21-0.8c-2.72,0.15-4.64,1.94-4.64,4.39c0,1.31,0.02,3.81,0.02,3.81
	c-3.5-5.5-9.13-9.33-12.87-10.44c-10.09-3-20.61-0.34-28.55,10.77c-6.31,8.83-10.11,18.82-11.61,33.19
	c-1.09,10.5-0.74,21.15,1.21,30.15c-2.35,10.16-6.71,14.32-11.49,14.32c-6.94,0-11.96-11.32-11.38-30.9
	c0.39-12.88,2.96-21.92,5.78-34.99c1.2-5.57,0.23-8.49-2.22-11.29c-2.24-2.56-7.03-3.88-13.9-2.26c-4.9,1.15-11.9,2.38-18.31,3.33
	c0,0,0.39-1.54,0.7-4.26c1.67-14.26-13.83-13.1-18.78-8.55c-2.95,2.72-4.96,5.93-5.72,11.69c-1.21,9.15,6.25,13.47,6.25,13.47
	c-2.45,11.21-8.45,25.85-14.65,36.44c-3.32,5.67-5.86,9.88-9.14,14.34c-0.01-1.66-0.02-3.33-0.03-4.98
	c-0.08-23.57,0.24-42.12,0.38-48.8c0.13-6.55,0.4-11.44,0.38-12.58c-0.04-2.56-1.53-3.53-4.64-4.75c-2.75-1.08-6-1.83-9.37-2.09
	c-4.26-0.33-6.82,1.93-6.75,4.59c0.01,0.5,0.01,3.6,0.01,3.6c-3.5-5.5-9.13-9.33-12.87-10.44c-10.09-2.99-20.61-0.34-28.55,10.77
	c-6.31,8.83-10.44,21.21-11.61,33.08c-1.09,11.06-0.89,20.45,0.6,28.37c-1.6,7.93-6.21,16.22-11.43,16.22
	c-6.67,0-10.46-5.9-10.46-32.84c0-15.72,0.47-22.55,0.7-33.92c0.13-6.55,0.39-11.58,0.38-12.72c-0.05-3.5-6.1-5.26-8.92-5.92
	c-2.95-0.68-5.49-0.93-7.44-0.79c-2.58,0.19-4.39,2.5-4.39,4.22v3.97c-3.5-5.5-9.13-9.33-12.87-10.44
	c-10.09-2.99-20.55-0.3-28.55,10.77c-5.21,7.21-9.44,15.21-11.61,32.92c-0.63,5.12-0.91,9.91-0.87,14.39
	c-2.08,12.72-11.26,27.38-18.78,27.38c-4.4,0-8.58-8.53-8.58-26.7c0-24.21,1.5-58.68,1.75-62c0,0,9.49-0.16,11.33-0.18
	c4.73-0.05,9.02,0.06,15.33-0.26c3.16-0.16,6.21-11.51,2.95-12.92c-1.48-0.64-11.94-1.19-16.08-1.28c-3.49-0.08-13.19-0.8-13.19-0.8
	s0.87-22.88,1.07-25.3c0.17-2.01-2.43-3.05-3.93-3.68c-3.63-1.54-6.89-2.27-10.74-3.07c-5.32-1.1-7.74-0.02-8.21,4.47
	c-0.71,6.82-1.08,26.8-1.08,26.8c-3.91,0-17.25-0.76-21.16-0.76c-3.63,0-7.55,15.62-2.53,15.81c5.78,0.22,15.84,0.42,22.52,0.62
	c0,0-0.3,35.04-0.3,45.85c0,1.15,0.01,2.26,0.01,3.33c-3.67,19.14-16.61,29.48-16.61,29.48c2.78-12.66-2.9-22.17-13.12-30.22
	c-3.77-2.97-11.2-8.58-19.52-14.74c0,0,4.82-4.75,9.09-14.3c3.03-6.77,3.16-14.51-4.27-16.22c-12.28-2.82-22.4,6.19-25.42,15.82
	c-2.34,7.46-1.09,12.99,3.49,18.74c0.33,0.42,0.7,0.85,1.07,1.28c-2.77,5.34-6.58,12.53-9.8,18.11
	c-8.95,15.49-15.71,27.73-20.82,27.73c-4.08,0-4.03-12.44-4.03-24.08c0-10.04,0.74-25.13,1.33-40.75c0.2-5.17-2.39-8.11-6.72-10.78
	c-2.63-1.62-8.25-4.8-11.5-4.8c-4.87,0-18.92,0.66-32.19,39.05c-1.67,4.84-4.96,13.66-4.96,13.66l0.28-46.17
	c0-1.08-0.58-2.13-1.9-2.84c-2.24-1.21-8.21-3.7-13.52-3.7c-2.53,0-3.79,1.18-3.79,3.52l-0.46,72.23c0,5.49,0.14,11.89,0.69,14.69
	c0.54,2.8,1.42,5.08,2.5,6.44c1.08,1.35,2.34,2.39,4.4,2.81c1.92,0.4,12.45,1.75,13-2.28c0.66-4.82,0.68-10.04,6.21-29.49
	c8.61-30.28,19.83-45.06,25.1-50.3c0.92-0.92,1.98-0.97,1.92,0.53c-0.23,6.64-1.02,23.23-1.55,37.32
	c-1.43,37.72,5.43,44.71,15.24,44.71c7.5,0,18.08-7.45,29.41-26.32c7.07-11.76,13.93-23.29,18.86-31.6
	c3.44,3.18,7.29,6.6,11.14,10.26c8.95,8.5,11.89,16.57,9.94,24.23c-1.49,5.86-7.11,11.89-17.11,6.02c-2.91-1.71-4.16-3.03-7.09-4.96
	c-1.57-1.04-3.98-1.35-5.42-0.26c-3.74,2.82-5.88,6.41-7.11,10.86c-1.19,4.32,3.14,6.61,7.63,8.61c3.87,1.72,12.17,3.28,17.47,3.46
	c20.65,0.69,37.19-9.97,48.7-37.46c2.06,23.75,10.83,37.18,26.07,37.18c10.19,0,20.4-13.17,24.87-26.13
	c1.28,5.28,3.18,9.87,5.63,13.76c11.74,18.61,34.52,14.6,45.97-1.2c3.54-4.88,4.08-6.64,4.08-6.64
	c1.67,14.92,13.68,20.13,20.56,20.13c7.7,0,15.66-3.64,21.23-16.19c0.65,1.36,1.37,2.66,2.14,3.9c11.74,18.61,34.52,14.6,45.97-1.2
	c0.54-0.74,1.01-1.41,1.42-2.02l0.34,9.8c0,0-6.53,5.99-10.54,9.66c-17.64,16.18-31.05,28.46-32.03,42.75
	c-1.27,18.23,13.52,25,24.7,25.89c11.88,0.94,22.05-5.62,28.3-14.8c5.5-8.08,9.1-25.48,8.83-42.66c-0.11-6.88-0.28-15.63-0.41-25
	c6.2-7.2,13.18-16.3,19.61-26.95c7.01-11.61,14.52-27.19,18.36-39.32c0,0,6.53,0.06,13.49-0.4c2.23-0.15,2.87,0.31,2.46,1.94
	c-0.5,1.97-8.8,33.99-1.22,55.32c5.19,14.6,16.88,19.3,23.81,19.3c8.11,0,15.87-6.13,20.03-15.23c0.5,1.01,1.03,2,1.6,2.9
	c11.74,18.61,34.44,14.58,45.97-1.2c2.6-3.56,4.08-6.64,4.08-6.64c2.47,15.44,14.48,20.21,21.36,20.21
	c7.16,0,13.96-2.94,19.48-15.99c0.23,5.75,0.59,10.45,1.17,11.93c0.35,0.91,2.38,2.04,3.87,2.59c6.55,2.43,13.24,1.28,15.71,0.78
	c1.71-0.35,3.05-1.72,3.23-5.27c0.48-9.32,0.19-24.97,3.01-36.61c4.74-19.53,9.16-27.1,11.26-30.85c1.17-2.1,2.5-2.45,2.55-0.22
	c0.1,4.5,0.32,17.71,2.16,35.46c1.35,13.06,3.15,20.77,4.54,23.21c3.95,6.98,8.83,7.31,12.81,7.31c2.53,0,7.82-0.7,7.34-5.14
	c-0.23-2.17,0.17-15.55,4.85-34.79c3.05-12.56,8.14-23.91,9.98-28.06c0.68-1.53,0.99-0.32,0.98-0.09
	c-0.39,8.65-1.25,36.95,2.27,52.43c4.78,20.97,18.6,23.31,23.42,23.31c10.28,0,18.69-7.82,21.52-28.4c0.68-4.95-0.33-8.78-3.36-8.78
	"/>
<path class="st1" d="M112.35,29.99c-30.51,0-34.34,0.13-46.32,0.68c-11.96,0.55-20.13,2.44-27.27,5.22
	c-7.39,2.87-13.66,6.71-19.9,12.95C12.61,55.09,8.77,61.35,5.9,68.74c-2.79,7.15-4.68,15.31-5.22,27.27
	C0.14,107.99,0,111.82,0,142.33s0.14,34.33,0.68,46.31c0.55,11.96,2.44,20.12,5.22,27.26c2.87,7.39,6.71,13.66,12.96,19.9
	c6.24,6.25,12.51,10.1,19.89,12.97c7.15,2.78,15.31,4.67,27.27,5.22c11.98,0.55,15.81,0.68,46.32,0.68s34.33-0.13,46.31-0.68
	c11.96-0.55,20.13-2.44,27.28-5.22c7.39-2.87,13.64-6.72,19.89-12.97c6.25-6.24,10.09-12.51,12.97-19.9
	c2.76-7.15,4.66-15.31,5.22-27.27c0.54-11.98,0.68-15.8,0.68-46.31s-0.14-34.34-0.68-46.32c-0.56-11.96-2.46-20.12-5.22-27.27
	c-2.88-7.39-6.72-13.66-12.97-19.9c-6.25-6.25-12.5-10.09-19.89-12.95c-7.16-2.78-15.33-4.67-27.29-5.22
	c-12-0.54-15.81-0.67-46.33-0.67H112.35z M102.27,50.23c2.99,0,6.33,0,10.08,0c29.99,0,33.55,0.11,45.39,0.65
	c10.95,0.5,16.9,2.33,20.86,3.87c5.24,2.04,8.98,4.47,12.91,8.4c3.93,3.93,6.37,7.68,8.41,12.92c1.54,3.96,3.37,9.9,3.87,20.85
	c0.54,11.84,0.66,15.4,0.66,45.38s-0.12,33.54-0.66,45.38c-0.5,10.95-2.33,16.9-3.87,20.85c-2.04,5.24-4.47,8.98-8.41,12.9
	c-3.93,3.93-7.66,6.37-12.91,8.4c-3.96,1.54-9.9,3.37-20.86,3.87c-11.84,0.54-15.4,0.66-45.39,0.66c-30,0-33.55-0.12-45.39-0.66
	c-10.95-0.51-16.9-2.34-20.86-3.87c-5.24-2.04-8.99-4.47-12.92-8.4s-6.37-7.67-8.41-12.91c-1.54-3.96-3.37-9.9-3.87-20.85
	c-0.54-11.84-0.65-15.4-0.65-45.4s0.11-33.54,0.65-45.38c0.5-10.95,2.33-16.9,3.87-20.86c2.04-5.24,4.47-8.99,8.41-12.92
	s7.68-6.37,12.92-8.41c3.96-1.54,9.91-3.37,20.86-3.87c10.36-0.47,14.38-0.61,35.32-0.63L102.27,50.23z M172.31,68.89
	c-7.44,0-13.48,6.03-13.48,13.48c0,7.44,6.04,13.48,13.48,13.48s13.48-6.04,13.48-13.48C185.79,74.93,179.75,68.88,172.31,68.89
	L172.31,68.89z M112.35,84.64c-31.86,0-57.69,25.83-57.69,57.69s25.83,57.68,57.69,57.68s57.68-25.82,57.68-57.68
	S144.2,84.64,112.35,84.64L112.35,84.64z M112.35,104.88c20.68,0,37.45,16.76,37.45,37.45c0,20.68-16.77,37.45-37.45,37.45
	S74.9,163.01,74.9,142.33C74.9,121.64,91.66,104.88,112.35,104.88z"/>
</svg>
