<?xml version="1.0" encoding="utf-8"?>
<!-- Generator: Adobe Illustrator 24.3.0, SVG Export Plug-In . SVG Version: 6.00 Build 0)  -->
<svg version="1.1" id="圖層_1" xmlns="http://www.w3.org/2000/svg" xmlns:xlink="http://www.w3.org/1999/xlink" x="0px" y="0px"
	 viewBox="0 0 786 164" style="enable-background:new 0 0 786 164;" xml:space="preserve">
<style type="text/css">
	.st0{fill:#33D9B2;}
</style>
<path class="st0" d="M547.7,0c-56.6,0-81.9,35.1-81.9,82s25.8,82,81.9,82s82-40.7,82-82S604.3,0,547.7,0z M547.7,131.1
	C516.9,131.1,504,105,504,82s14.1-48.6,43.7-48.6c29.5,0,43.7,25.5,43.7,48.6C591.4,105,578.5,131.1,547.7,131.1z M143.6,5.4h-26.9
	c-12.1,0-17.9,3.1-24.8,10.5L38.2,70.8V10.2c0-2.3-1.4-4.4-4.2-4.4H4.4C1.4,5.7,0,7.6,0,10.2V155c0,1.9,1.6,3.4,3.4,3.4h31.3
	c1.9,0,3.5-1.5,3.5-3.4V93.1l55.3,59.2c4.8,4.8,12.3,7,21.6,7h27c8.9,0,5.6-5.1,5.6-5.1L78.4,82.5l69.5-72
	C148,10.5,152.5,5.4,143.6,5.4L143.6,5.4z M302.8,5.4h-26.9C263.7,5.4,258,8.5,251,16l-53.6,54.9V10.2c0-2.3-1.4-4.4-4.2-4.4h-29.6
	c-2.9,0-4.4,1.8-4.4,4.4V155c0,1.9,1.6,3.4,3.4,3.4h31.3c1.9,0,3.5-1.5,3.5-3.4V93.1l55.3,59.2c4.8,4.8,12.3,7,21.6,7h27
	c8.9,0,5.6-5.1,5.6-5.1l-69.3-71.8l69.5-72C307.1,10.5,311.7,5.4,302.8,5.4z"/>
<path class="st0" d="M785.6,153.8l-53-73.2L782,10.5c0,0,4.6-5.1-4.4-5.1h-25.9c-11.3,0-16.2,0.1-21.5,7.9l-23.8,36.8l-24.6-37.3
	c-5.6-6.8-12.1-7.4-23.6-7.4h-23.5c-9,0-4.6,5.1-4.6,5.1l50.7,70.1l-54,73.6c0,0-3.3,5.1,5.6,5.1h23.9c7.1,0,16.8,1.1,22.3-6.2
	c0.1-0.1,27.7-41.4,27.7-41.4s27.2,40.6,27.3,40.7c5.5,7.5,14.7,6.9,21.8,6.9h23.7C788.3,159.4,785.6,153.8,785.6,153.8L785.6,153.8
	z M326.5,4.8h72.6C433,4.8,447,25,447,44.1c0,15.7-11.3,28.8-24.4,34.8c17.4,6.9,30.2,16.8,30.2,40.1c0,25.7-18.4,40.2-49.9,40.2
	h-77.2c-2.9,0-4.9-2.1-4.9-5.1V10.5C320.9,6.9,323.2,4.8,326.5,4.8L326.5,4.8z M383.4,67.5c15,0,23-3.6,23-16.7v-0.7
	c0-10.1-7.3-15-24.1-15L361,35.5v32.1h22.4V67.5z M386.3,130.4c17.8,0,24.4-5.9,24.4-17.3v-0.4c0-12.4-8-18.3-23.2-18.3H361v35.3
	L386.3,130.4z"/>
</svg>
