<?xml version="1.0" encoding="utf-8"?>
<!-- Generator: Adobe Illustrator 24.3.0, SVG Export Plug-In . SVG Version: 6.00 Build 0)  -->
<svg version="1.1"
	 id="svg3336" xmlns:cc="http://creativecommons.org/ns#" xmlns:dc="http://purl.org/dc/elements/1.1/" xmlns:rdf="http://www.w3.org/1999/02/22-rdf-syntax-ns#" xmlns:svg="http://www.w3.org/2000/svg"
	 xmlns="http://www.w3.org/2000/svg" xmlns:xlink="http://www.w3.org/1999/xlink" x="0px" y="0px" viewBox="0 0 298 84.1"
	 style="enable-background:new 0 0 298 84.1;" xml:space="preserve">
<style type="text/css">
	.st0{fill:#FFFFFF;}
	.st1{fill:#33D9B2;}
</style>
<g>
	<path id="path3356" class="st0" d="M99.62,51.85c0-2.37,3-5,3.38-4.75c2.13,1.88,6.25,3.75,9.75,3.75c3.12,0,4.63-0.87,4.63-2.63
		c0-2-2.63-2-5.88-2.75c-5.5-1.12-11-3.37-11-10.13c0-6.75,5-10.87,14-10.87c8.62,0,12.37,3,12.37,6.25c0,2.88-3.38,5.25-3.62,5
		c-2.13-2-5.62-3.5-8.75-3.5c-3,0-4.38,0.87-4.38,2.5c0,1.88,2.63,1.75,6.12,2.5c6.5,1.38,11.38,4.13,11.38,10.25
		c0,7.12-4.87,11.12-14.87,11.12C103.13,58.6,99.62,55.35,99.62,51.85"/>
	<path id="path3360" class="st0" d="M131,53.48V29.73c0-3.12,1.5-4.75,4.25-4.75h1.5c3,0,4.5,1.63,4.5,4.75v7.5h10.5v-7.5
		c0-3.12,1.5-4.75,4.25-4.75h1.5c2.87,0,4.38,1.63,4.38,4.75v23.75c0,3.12-1.5,4.75-4.38,4.75H156c-2.75,0-4.25-1.63-4.25-4.75
		v-7.75h-10.5v7.75c0,3.12-1.5,4.75-4.5,4.75h-1.5C132.5,58.1,131,56.48,131,53.48"/>
	<path id="path3368" class="st0" d="M185.38,45.73c0,3.5-2.62,5.75-6.12,5.75c-2.5,0-4.12-1.25-4.12-3.25c0-3.37,4.5-4.75,7.87-4.75
		h2.25v2.25H185.38z M179.62,24.35c-6.62,0-12.88,3.12-12.88,7.25c0,5.13,6.38,5,6.38,5c0.75-2.75,3-4.25,6-4.25
		c4.63,0,6.25,2.25,6.25,5.5h-2.25C170,37.85,165,43.1,165,48.98c0,5.75,4.87,9.62,11.25,9.62c4.5,0,8.75-1.63,9.5-4.75
		c0.37,2.37,2.62,4.5,5.62,4.5c2.62,0,3.88-0.87,4-1.25v-20C195.38,28.98,189.75,24.35,179.62,24.35"/>
	<path id="path3364" class="st0" d="M198.38,53.85v-0.5c0-2.88,1-4,2.75-5.75l12.5-14.13h-10.37c-3,0-4.5-1-4.5-3.88v-0.5
		c0-2.75,1.5-3.88,4.5-3.88h18.38c3.75,0,5.13,2,5.13,3.88v0.5c0,2.88-1.12,4-2.75,5.75l-12.75,14.13h11.25c3,0,4.5,1.12,4.5,4v0.38
		c0,2.75-1.5,4-4.5,4h-19C199.88,57.85,198.38,55.85,198.38,53.85"/>
	<path id="path3372" class="st0" d="M249.75,45.73c0,3.5-2.62,5.75-6.12,5.75c-2.5,0-4.12-1.25-4.12-3.25c0-3.37,4.5-4.75,7.87-4.75
		h2.25v2.25H249.75z M243.87,24.35c-6.62,0-12.87,3.12-12.87,7.25c0,5.13,6.38,5,6.38,5c0.75-2.75,3-4.25,6-4.25
		c4.62,0,6.25,2.25,6.25,5.5h-2.25c-13.12,0-18.12,5.25-18.12,11.12c0,5.75,4.88,9.62,11.25,9.62c4.5,0,8.75-1.63,9.5-4.75
		c0.37,2.37,2.63,4.5,5.62,4.5c2.63,0,3.88-0.87,4-1.25v-20C259.62,28.98,254.12,24.35,243.87,24.35"/>
	<path id="path3376" class="st0" d="M263.38,53.48V29.85c0-3.25,1.62-4.87,4.5-4.87h2.88c2.75,0,3.62,0.62,4.5,2.75l5.37,13.12
		L286,27.73c1-2.25,2-2.75,4.38-2.75h2.87c3,0,4.63,1.63,4.63,4.87v23.62c0,3.12-1.12,4.75-4,4.75h-1.62c-2.75,0-4-1.63-4-4.75v-14
		l-3.5,9.62c-0.5,1.25-0.5,2.5-4.38,2.5c-3.88,0-3.75-1.12-4.25-2.5l-3.38-9.13V53.6c0,3.12-1,4.75-4,4.75h-1.62
		C264.62,58.1,263.38,56.48,263.38,53.48"/>
</g>
<path id="path3396" class="st1" d="M0,42.1c0,23.25,18.88,42,42,42l0,0c23.25,0,42-18.88,42-42l0,0c0-23.25-18.88-42-42-42l0,0
	C18.88-0.02,0,18.85,0,42.1"/>
<path id="path3408" class="st0" d="M64.5,57.73c-4,4.38-11.12,11.25-11.5,11.5c-1,0.87-2.12,1.38-3.37,1.38s-2.5-0.5-3.5-1.5
	c-1.88-2-1.75-5,0.13-6.88c0.13-0.13,7.25-6.88,11-11c1.75-2,2.63-4.5,2.5-7.12c-0.13-2.75-1.5-5.38-3.75-7.25
	c-3-2.5-8.75-3.12-12.37,0.13c-2.12,2-4.75,4.75-4.87,4.87c-1.88,2-4.87,2.12-6.88,0.25s-2.12-4.87-0.25-6.88
	c0.13-0.13,3-3.25,5.5-5.5c6.88-6.25,18.25-6.38,25.25-0.25c4.25,3.62,6.75,8.62,7.12,14C69.88,48.73,68.12,53.85,64.5,57.73
	 M35.13,58.1c-4.5,0-9-1.5-12.5-4.5c-4.25-3.62-6.75-8.62-7.12-14c-0.38-5.25,1.5-10.25,5-14.25c4-4.38,11.12-11.25,11.5-11.5
	c2-1.88,5-1.75,6.88,0.13c1.88,2,1.75,5-0.13,6.88c-0.13,0.13-7.25,6.88-11,11c-1.75,2-2.63,4.5-2.5,7.12
	c0.13,2.75,1.5,5.38,3.75,7.25c3,2.5,8.75,3.12,12.37-0.13c2.12-2,4.75-4.75,4.87-4.87c1.88-2,4.87-2.12,6.88-0.25
	s2.12,4.87,0.25,6.88c-0.13,0.13-3,3.25-5.5,5.5C44.37,56.48,39.75,58.1,35.13,58.1"/>
</svg>
