<?xml version="1.0" encoding="utf-8"?>
<!-- Generator: Adobe Illustrator 24.3.0, SVG Export Plug-In . SVG Version: 6.00 Build 0)  -->
<svg version="1.1"
	 id="svg477" inkscape:version="0.92.0 r15299" sodipodi:docname="tidal.svg" xmlns:cc="http://creativecommons.org/ns#" xmlns:dc="http://purl.org/dc/elements/1.1/" xmlns:inkscape="http://www.inkscape.org/namespaces/inkscape" xmlns:rdf="http://www.w3.org/1999/02/22-rdf-syntax-ns#" xmlns:sodipodi="http://sodipodi.sourceforge.net/DTD/sodipodi-0.dtd" xmlns:svg="http://www.w3.org/2000/svg"
	 xmlns="http://www.w3.org/2000/svg" xmlns:xlink="http://www.w3.org/1999/xlink" x="0px" y="0px" viewBox="0 0 190.6 25.2"
	 style="enable-background:new 0 0 190.6 25.2;" xml:space="preserve">
<style type="text/css">
	.st0{fill:#FFFFFF;}
	.st1{fill:#33D9B2;}
</style>
<path id="path95" inkscape:connector-curvature="0" class="st0" d="M69.3,24.7h-4.9V7.4h-6.3V3.2h17.5v4.2h-6.3V24.7z"/>
<path id="path97" inkscape:connector-curvature="0" class="st0" d="M95.2,24.7h-4.9V3.2h4.9V24.7z"/>
<path id="path101" inkscape:connector-curvature="0" class="st0" d="M182.1,20.5h8.5v4.3h-13.4V3.2h4.9V20.5z"/>
<path id="path113" inkscape:connector-curvature="0" class="st0" d="M111.6,3.2h8c5.9,0,11.7,3.1,11.7,10.7
	c0,7.2-5.7,10.8-11.4,10.8h-8.3V3.2z M116.4,20.5h3.1c4.1,0,6.8-2.6,6.8-6.6c0-3.9-2.8-6.5-6.7-6.5h-3.2V20.5z"/>
<path id="path117" inkscape:connector-curvature="0" class="st0" d="M158.6,24.7h5.4l-8.9-21.5h-5.1l-9,21.5h5.3l1.6-4.3h9.1
	L158.6,24.7z M149.3,16.6l3.2-8.4l3.2,8.4H149.3z"/>
<path id="path121" inkscape:connector-curvature="0" class="st1" d="M25.2,6.3l-6.3,6.3l-6.3-6.3L18.9,0L25.2,6.3z"/>
<path id="path125" inkscape:connector-curvature="0" class="st1" d="M25.2,18.9l-6.3,6.3l-6.3-6.3l6.3-6.3L25.2,18.9z"/>
<path id="path129" inkscape:connector-curvature="0" class="st1" d="M12.6,6.3l-6.3,6.3L0,6.3L6.3,0L12.6,6.3z"/>
<path id="path133" inkscape:connector-curvature="0" class="st1" d="M37.8,6.3l-6.3,6.3l-6.3-6.3L31.5,0L37.8,6.3z"/>
</svg>
