<?xml version="1.0" encoding="utf-8"?>
<!-- Generator: Adobe Illustrator 24.3.0, SVG Export Plug-In . SVG Version: 6.00 Build 0)  -->
<svg version="1.1"
	 id="svg2" inkscape:version="0.91 r13725" sodipodi:docname="Twitter logo.svg" xmlns:cc="http://creativecommons.org/ns#" xmlns:dc="http://purl.org/dc/elements/1.1/" xmlns:inkscape="http://www.inkscape.org/namespaces/inkscape" xmlns:rdf="http://www.w3.org/1999/02/22-rdf-syntax-ns#" xmlns:sodipodi="http://sodipodi.sourceforge.net/DTD/sodipodi-0.dtd" xmlns:svg="http://www.w3.org/2000/svg"
	 xmlns="http://www.w3.org/2000/svg" xmlns:xlink="http://www.w3.org/1999/xlink" x="0px" y="0px" viewBox="0 0 586.29 153.9"
	 style="enable-background:new 0 0 586.29 153.9;" xml:space="preserve">
<style type="text/css">
	.st0{fill:#FFFFFF;}
	.st1{fill:#33D9B2;}
</style>
<sodipodi:namedview  bordercolor="#666666" borderopacity="1.0" fit-margin-bottom="0" fit-margin-left="0" fit-margin-right="0" fit-margin-top="0" id="base" inkscape:current-layer="g4147" inkscape:cx="234.00027" inkscape:cy="54.652165" inkscape:document-units="px" inkscape:pageopacity="0.0" inkscape:pageshadow="2" inkscape:window-height="705" inkscape:window-maximized="1" inkscape:window-width="1366" inkscape:window-x="-8" inkscape:window-y="-8" inkscape:zoom="1.4142136" pagecolor="#ffffff" showgrid="false">
	</sodipodi:namedview>
<g id="layer1" transform="translate(-50.461389,-83.56061)" inkscape:groupmode="layer" inkscape:label="Capa 1">
	<g id="g4147" transform="translate(394.28571,-405.71429)">
		
			<path id="path4223" inkscape:connector-curvature="0" sodipodi:nodetypes="csccsscssssscssccsscccsssccccssssssccssscccssscsscccsssssscccssssscsssscsscsscccscccsccsssscsssssscscccsssssssscscccccccssscscssssssssssssscssssssss" class="st0" d="
			M-112.23,613.41c-7.3-1.97-14-7.51-17.43-14.43c-2.63-5.3-2.62-5.26-2.63-29.62c-0.31-21.07-0.19-21.75,1.21-23.78
			c2.98-4.98,9.56-6.04,13.88-2.24c3.03,2.67,3.27,3.57,3.27,12.29v7.56h12.72c7.78,0,13.46,0.16,14.63,0.41
			c6.64,1.42,9.16,9.36,4.55,14.33c-0.54,0.59-1.66,1.43-2.49,1.87c-1.45,0.78-1.98,0.81-15.46,0.92l-13.96,0.11v3.37
			c0,4.91,0.51,6.51,2.79,8.79c2.66,2.66,3.37,2.78,15.84,2.79c9.67,0.01,10.54,0.06,12.11,0.77c5.94,2.69,7.42,9.84,3.04,14.7
			c-2.56,2.84-2.73,2.87-16.91,2.85C-108.13,614.12-109.93,614.03-112.23,613.41L-112.23,613.41z M-55.57,613.57
			c-5.77-1.4-11.72-5.78-15.35-11.3c-3.35-5.09-4-8.67-4.02-22.05c-0.01-11.54,0.22-12.99,2.44-15.28c2.05-2.12,3.36-2.66,6.39-2.68
			c2.31-0.01,2.89,0.14,4.49,1.12c1.14,0.7,2.27,1.83,2.97,2.97c1.41,2.44,1.15,3.46,1.32,13.48c0.18,11.41,0.21,11.68,1.07,13.06
			c2.91,4.68,8.92,5.36,12.91,1.48c2.3-2.24,2.52-3.56,2.52-15.34c0-9.69,0.04-10.34,0.79-11.83c1.5-2.99,3.67-4.57,6.88-5.01
			c3.44-0.47,7.14,1.55,8.92,4.88c0.79,1.48,0.84,2.09,1.02,13.01c-0.06,9.09,0.36,11.75,1.22,13.02c2.74,4.14,8.51,5.03,12.11,1.87
			c2.58-2.27,2.58-2.26,2.79-14.92c0.18-10.87,0.23-11.51,1.02-12.98c3.3-6.2,11.64-6.59,15.27-0.71
			c2.35,3.25,1.32,10.14,1.32,14.58c0.17,5.84-0.17,13.33-1.19,15.64c-2.78,7.84-8.97,14.08-16.42,16.52
			c-3.38,1.11-10.82,1.38-14.18,0.51c-3.23-0.84-6.03-2.12-8.7-3.99l-2.24-1.57l-2.24,1.57c-2.7,1.9-5.44,3.18-8.43,3.96
			C-45.69,614.3-52.57,614.3-55.57,613.57L-55.57,613.57z M22.26,613.63c-1.71-0.74-3.84-2.75-4.77-4.49
			c-0.81-1.52-0.82-1.69-0.82-20.83c0-18.42,0.03-19.37,0.74-20.78c2.92-5.89,10.45-7.21,15.02-2.64c2.84,2.84,2.83,2.77,2.71,24.03
			c-0.11,18.35-0.12,18.72-0.92,20.19c-1.05,1.94-2.95,3.74-4.71,4.48C27.82,614.29,23.84,614.31,22.26,613.63L22.26,613.63z
			 M61.59,613.42c-8.33-2.18-15.58-8.77-18.65-16.92c-1.65-4.4-1.78-6.64-1.66-28.43c0.12-20.1,0.13-20.45,0.93-21.92
			c3.97-7.36,14.83-6.42,17.19,1.47c0.4,1.33,0.55,3.75,0.55,8.68v6.83l8.9,0.14c8.23,0.13,9.01,0.2,10.4,0.94
			c6.51,3.48,6.54,12.12,0.05,15.59c-1.46,0.78-2.11,0.84-10.48,0.95l-8.93,0.12l0.12,4.37c0.15,5.1,0.73,6.63,3.26,8.57
			c2.22,1.7,3.61,1.98,9.98,1.98c5.11,0,5.79,0.09,7.52,0.89c7.2,3.35,7.19,13.5-0.01,16.77C78.54,614.47,65.5,614.44,61.59,613.42
			L61.59,613.42z M109.3,613.43c-9.44-2.58-17.19-10.51-19.63-20.09c-0.6-2.35-0.67-4.73-0.67-23.97
			c0.14-19.98-0.85-19.19,1.02-23.31c2.15-4.09,6.6-5.89,11.31-4.58c1.96,0.54,5.26,3.85,5.81,5.81c0.23,0.82,0.41,4.65,0.41,8.68
			l0,7.21h7.63c8.74,0,11.06,0.32,13.17,1.84c4.56,3.28,4.66,10.62,0.2,13.85c-2.23,1.61-4.34,1.92-13.14,1.92h-7.85v3.39
			c0,4.47,0.51,6.35,2.28,8.36c2.41,2.74,3.31,3,11.05,3.23c6.74,0.2,6.79,0.2,8.62,1.33c2.1,1.3,4.04,4.16,4.42,6.52
			c0.55,3.41-1.24,7.25-4.32,9.29l-1.57,1.04l-8.09,0.08C113.05,614.12,111.49,614.03,109.3,613.43L109.3,613.43z M156.08,613.6
			c-5.48-1.48-9.52-3.91-13.47-8.11c-4.8-5.1-6.96-10.73-6.95-18.06c0.01-4.48,0.78-7.98,2.56-11.69c1.89-3.91,3.95-6.47,7-8.64
			c8.87-6.33,24.63-6.72,34.56-0.87c3.55,2.1,7.25,6.06,9.05,9.72c3.64,7.38,3.27,14.07-0.89,16.25c-1.44,0.75-2.11,0.79-17.33,0.89
			l-15.83,0.11v0.98c0,1.53,2.44,3.61,5.13,4.36c1.83,0.51,4.04,0.63,12.32,0.63c5.61,0,10.7,0.17,11.45,0.38
			c6.45,1.79,7.74,10.34,2.07,13.66c-1.84,1.24-2.95,0.93-14.7,0.92C161.3,614.12,157.48,613.98,156.08,613.6L156.08,613.6z
			 M172.56,580.34c-0.71-2.36-2.73-3.76-6.43-4.45c-3.93-0.73-9.44,0.9-10.5,3.11c-0.47,0.97-0.91,2.08-0.91,2.08
			s3.27,0.11,9.08,0.11h9.01L172.56,580.34z M200.84,613.44c-1.93-1.05-3.99-3.49-4.48-5.31c-0.29-1.06-0.38-5.22-0.28-12.86
			c0.14-11.12,0.15-11.33,1.16-14.36c2.66-7.99,9.78-14.61,18.05-16.81c3.04-0.81,17.09-1.19,20.15-0.56
			c4.25,0.89,7.02,4.17,7.02,8.34c0,3.55-1.61,6.3-4.64,7.9c-1.42,0.75-2.24,0.83-10.35,1.01c-8.41,0.19-8.87,0.24-10.22,1.08
			c-1.78,1.11-3.08,2.82-3.61,4.74c-0.25,0.9-0.41,5.37-0.41,11.26c0,9.76,0,9.76-0.98,11.72c-0.66,1.32-1.54,2.35-2.72,3.16
			c-1.53,1.06-2.09,1.22-4.55,1.31C202.78,614.14,201.89,614.01,200.84,613.44L200.84,613.44z M21.8,556.6
			c-5.95-2.96-7.03-10.79-2.09-15.13c1.92-1.69,3.47-2.26,6.14-2.26c3.73,0,6.62,1.74,8.3,4.99
			C38.16,551.97,29.65,560.51,21.8,556.6L21.8,556.6z"/>
	</g>
</g>
<g id="layer1_1_" transform="translate(-539.17946,-568.85777)">
	<path id="path3611" class="st1" d="M598.74,722.76c71.47,0,110.54-59.21,110.54-110.54c0-1.68-0.03-3.36-0.11-5.02
		c7.59-5.48,14.18-12.33,19.38-20.12c-6.96,3.09-14.45,5.18-22.31,6.12c8.02-4.81,14.18-12.42,17.09-21.49
		c-7.51,4.45-15.82,7.68-24.67,9.43c-7.09-7.55-17.18-12.28-28.36-12.28c-21.46,0-38.86,17.4-38.86,38.85
		c0,3.05,0.34,6.01,1.01,8.86c-32.29-1.62-60.92-17.09-80.09-40.59c-3.34,5.74-5.26,12.41-5.26,19.53
		c0,13.48,6.86,25.38,17.29,32.34c-6.37-0.2-12.36-1.95-17.6-4.86c-0.01,0.16-0.01,0.32-0.01,0.5c0,18.82,13.39,34.53,31.17,38.09
		c-3.26,0.89-6.7,1.37-10.25,1.37c-2.5,0-4.94-0.25-7.3-0.7c4.95,15.44,19.29,26.67,36.3,26.99c-13.3,10.42-30.05,16.63-48.26,16.63
		c-3.13,0-6.23-0.18-9.27-0.54C556.37,716.33,576.79,722.76,598.74,722.76"/>
</g>
</svg>
