<?xml version="1.0" encoding="utf-8"?>
<!-- Generator: Adobe Illustrator 24.3.0, SVG Export Plug-In . SVG Version: 6.00 Build 0)  -->
<svg version="1.1" id="Layer_1" xmlns="http://www.w3.org/2000/svg" xmlns:xlink="http://www.w3.org/1999/xlink" x="0px" y="0px"
	 viewBox="0 0 1893 500" style="enable-background:new 0 0 1893 500;" xml:space="preserve">
<style type="text/css">
	.st0{fill:#FFFFFF;}
	.st1{fill:#33D9B2;}
</style>
<g>
	<path class="st0" d="M973,193.9c-12.8,64.9-22.5,144-27.6,176.7h-3.6c-4.1-33.7-13.8-112.4-27.1-176.2L882,35.6h-99.6v428.5h61.8
		V110.9l6.1,33l62.8,320.2h61.8l61.8-320.2l6.6-33.2V323v141.1h61.8V35.6h-100.6L973,193.9z"/>
	<path class="st0" d="M1272.3,399.7c-5.6,11.7-17.9,19.9-30.1,19.9c-14.3,0-19.9-11.2-19.9-38.8V151h-70.5v233.9
		c0,57.7,18.9,84.3,60.8,84.3c28.6,0,51.6-12.8,67.4-43.4h1.5l6.1,38.3h55.2V151h-70.5V399.7z"/>
	<path class="st0" d="M1479.1,274.6c-23-16.9-37.3-28.1-37.3-52.6c0-17.4,8.2-27.1,27.6-27.1c19.9,0,26.6,13.8,27.1,60.8l59.2-2.6
		c4.6-76.1-20.4-107.8-85.3-107.8c-60.3,0-89.9,27.1-89.9,82.7c0,50.6,24.5,73.5,64.4,103.7c34.2,26.6,54.1,41.4,54.1,62.8
		c0,16.3-10.2,27.6-28.1,27.6c-20.9,0-33.2-19.9-30.1-54.6l-59.8,1c-9.2,64.9,16.9,102.7,86.3,102.7c60.8,0,92.4-28.1,92.4-84.3
		C1559.8,335.9,1534.3,315.4,1479.1,274.6z"/>
	<rect x="1598.6" y="151" class="st0" width="67.4" height="313.1"/>
	<path class="st0" d="M1632.8,27.4c-26,0-38.3,9.7-38.3,43.4c0,34.7,12.3,43.4,38.3,43.4c26.6,0,38.3-8.7,38.3-43.4
		C1671.1,38.6,1659.4,27.4,1632.8,27.4z"/>
	<path class="st0" d="M1892.8,351.2l-61.8-3.1c0,55.2-6.1,73-27.1,73c-20.9,0-24.5-19.9-24.5-84.8v-60.8c0-62.8,4.1-82.7,25-82.7
		c19.4,0,24.5,18.9,24.5,77.1l61.3-4.1c4.1-48.5-2-81.7-20.9-100.6c-13.8-13.8-34.7-20.4-63.8-20.4c-68.4,0-96.5,36.8-96.5,139.9
		v43.9c0,106.2,24,140.4,94,140.4c29.6,0,50-6.1,63.8-19.4C1886.7,431.4,1894.3,399.7,1892.8,351.2z"/>
</g>
<g>
	<path class="st1" d="M699.4,78.1c-8.2-30.7-32.4-54.9-63.2-63.2C580.5,0,357.1,0,357.1,0s-223.3,0-279,14.9
		c-30.7,8.2-54.9,32.4-63.2,63.2C0,133.8,0,250,0,250s0,116.2,14.9,171.9c8.2,30.7,32.4,54.9,63.2,63.2c55.7,14.9,279,14.9,279,14.9
		s223.4,0,279.1-14.9c30.7-8.2,54.9-32.4,63.2-63.2c14.9-55.7,14.9-171.9,14.9-171.9S714.3,133.8,699.4,78.1z"/>
	<polygon class="st0" points="285.7,357.1 285.7,142.9 471.3,250 	"/>
</g>
</svg>
