<?xml version="1.0" standalone="no"?>
<!DOCTYPE svg PUBLIC "-//W3C//DTD SVG 20010904//EN"
 "http://www.w3.org/TR/2001/REC-SVG-20010904/DTD/svg10.dtd">
<svg version="1.0" xmlns="http://www.w3.org/2000/svg"
 width="512.000000pt" height="512.000000pt" viewBox="0 0 512.000000 512.000000"
 preserveAspectRatio="xMidYMid meet">
<metadata>
Created by potrace 1.11, written by Peter Selinger 2001-2013
</metadata>
<g transform="translate(0.000000,512.000000) scale(0.100000,-0.100000)"
fill="#000000" stroke="none">
<path d="M0 3132 l0 -389 451 0 450 0 181 -182 181 -181 -632 0 -631 0 0 -390
0 -390 2557 2 2558 3 0 385 0 385 -1484 3 -1483 2 181 182 181 181 1300 0
c934 0 1300 3 1301 11 1 6 2 181 3 389 l1 377 -1420 0 -1420 0 -285 -285 -285
-285 -285 285 -284 285 -568 0 -568 0 0 -388z m1407 25 c289 -291 296 -297
316 -280 11 10 146 144 301 299 l281 280 1370 0 1370 -1 0 -70 0 -70 -1385 0
-1385 1 -282 -283 c-154 -156 -284 -283 -287 -283 -4 0 -133 127 -286 282
l-280 283 -537 0 -538 0 0 55 c-1 30 1 62 3 70 3 13 68 15 523 15 l520 0 296
-298z m0 -207 l298 -300 300 300 300 300 1373 0 1372 0 0 -220 0 -220 -1283 0
-1282 0 -350 -350 c-291 -291 -346 -350 -325 -351 14 0 748 -1 1633 -1 l1607
0 0 -221 0 -222 -2490 0 c-1370 0 -2491 2 -2491 5 -4 13 -5 416 -1 426 2 9
203 12 745 12 408 0 758 1 777 1 34 1 27 9 -315 351 l-350 350 -430 2 -430 3
0 218 0 217 522 0 522 0 298 -300z m-12 -705 c36 -36 65 -67 65 -69 0 -2 -314
-3 -697 -3 l-698 2 0 65 c0 65 0 65 30 70 16 3 301 4 633 3 l602 -2 65 -66z
m3583 66 l72 -1 0 -69 0 -68 -1550 -1 c-852 0 -1550 1 -1550 3 0 7 127 132
138 136 9 3 2547 3 2890 0z"/>
</g>
</svg>
