<?xml version="1.0" encoding="utf-8"?>
<!-- Generator: Adobe Illustrator 24.3.0, SVG Export Plug-In . SVG Version: 6.00 Build 0)  -->
<svg version="1.1" id="Calque_1" xmlns="http://www.w3.org/2000/svg" xmlns:xlink="http://www.w3.org/1999/xlink" x="0px" y="0px"
	 viewBox="0 0 399.9 149.5" style="enable-background:new 0 0 399.9 149.5;" xml:space="preserve">
<style type="text/css">
	.st0{fill:#082121;}
	.st1{fill:#33D9B2;}
</style>
<polygon class="st0" points="0,0 88.9,0.1 133.3,44.6 177.8,0.1 400,0 400,60.5 196.2,60.5 167.7,89 399.9,89 399.9,149.5 0,149.5 
	0,89 98.9,89 70.4,60.5 0,60.5 "/>
<path class="st1" d="M177.8,0L177.8,0l-44.5,44.6L88.9,0.1V0H0v60.5h70.4L98.9,89H0v60.5h399.9V89H167.7l28.5-28.5H400V0H177.8z
	 M5,94h98.9l11,11H5V94z M394.9,94v11H151.7l11-11H394.9z M394.9,55.5H194.1L139.7,110h255.2v34.5H5V110h121.9L72.5,55.5H5V21h81.8
	l46.5,46.6L179.9,21h215.1V55.5z M177.8,16L177.8,16l-44.5,44.6L88.9,16.1V16H5V5h81.8l46.5,46.6L179.9,5h215.1v11H177.8z"/>
</svg>
