<?xml version="1.0" encoding="utf-8"?>
<!-- Generator: Adobe Illustrator 24.3.0, SVG Export Plug-In . SVG Version: 6.00 Build 0)  -->
<svg version="1.1" id="Calque_1" xmlns="http://www.w3.org/2000/svg" xmlns:xlink="http://www.w3.org/1999/xlink" x="0px" y="0px"
	 viewBox="0 0 399.94 149.52" style="enable-background:new 0 0 399.94 149.52;" xml:space="preserve">
<style type="text/css">
	.st0{fill:#33D9B2;}
</style>
<path class="st0" d="M177.76,0v0.06l-44.47,44.49L88.88,0.06V0H0v60.49h70.43l28.45,28.55H0v60.49h399.94V89.03H167.72l28.5-28.55
	h203.73V0H177.76z M5,94.03h98.87l10.98,11H5V94.03z M394.94,94.03v11h-243.2l10.98-11H394.94z M394.94,55.49h-200.8l-54.45,54.55
	h255.25v34.49H5v-34.49h121.9L72.51,55.49H5V21h81.75l46.54,46.62L179.89,21h215.05V55.49z M177.76,16v0.06l-44.47,44.49
	L88.88,16.06V16H5V5h81.75l46.54,46.62L179.89,5h215.05v11H177.76z"/>
</svg>
